<svg width="385" height="290" viewBox="0 0 385 290" fill="none" xmlns="http://www.w3.org/2000/svg">
<path d="M271.74 0C203.24 0 178.23 39.34 162.24 53.32C154.74 59.9133 145.975 64.9084 136.48 68C120.69 73.18 81.99 62.69 48.26 74C20.19 83.33 0 114.78 0 146.23C0 209.57 43.32 290 186.53 290C329.74 290 385 194.73 385 118.73C385 42.73 337 0 271.74 0Z" fill="#D2D7E2"/>
<rect x="37.1499" y="94.8203" width="56.83" height="77.31" rx="2.22" fill="#9AA4BE"/>
<rect x="30.8198" y="157.57" width="27.5" height="24.11" rx="2.22" fill="#62719A"/>
<path fill-rule="evenodd" clip-rule="evenodd" d="M44.1899 104.15H86.9399C87.2161 104.15 87.4399 103.927 87.4399 103.65C87.4399 103.374 87.2161 103.15 86.9399 103.15H44.1899C43.9138 103.15 43.6899 103.374 43.6899 103.65C43.6899 103.927 43.9138 104.15 44.1899 104.15ZM86.9399 110.16C87.2161 110.16 87.4399 110.384 87.4399 110.66C87.4399 110.937 87.2161 111.16 86.9399 111.16H44.1899C43.9138 111.16 43.6899 110.937 43.6899 110.66C43.6953 110.386 43.916 110.166 44.1899 110.16H86.9399ZM87.4399 117.66C87.4399 117.384 87.2161 117.16 86.9399 117.16H44.1899C43.9138 117.16 43.6899 117.384 43.6899 117.66C43.6953 117.934 43.916 118.155 44.1899 118.16H86.9399C87.2085 118.161 87.4292 117.949 87.4399 117.68V117.66ZM86.9399 124.16C87.2161 124.16 87.4399 124.384 87.4399 124.66V124.69C87.4241 124.955 87.2048 125.161 86.9399 125.16H44.1899C43.916 125.155 43.6953 124.934 43.6899 124.66C43.6899 124.384 43.9138 124.16 44.1899 124.16H86.9399ZM87.4399 131.66C87.4399 131.384 87.2161 131.16 86.9399 131.16H44.1899C43.916 131.166 43.6953 131.386 43.6899 131.66C43.6899 131.937 43.9138 132.16 44.1899 132.16H86.9399C87.2012 132.161 87.419 131.961 87.4399 131.7V131.66ZM86.9399 138.16C87.2161 138.16 87.4399 138.384 87.4399 138.66V138.71C87.4142 138.967 87.1977 139.162 86.9399 139.16H44.1899C43.9138 139.16 43.6899 138.937 43.6899 138.66C43.6953 138.386 43.916 138.166 44.1899 138.16H86.9399ZM87.4399 145.66C87.4399 145.384 87.2161 145.16 86.9399 145.16H44.1899C43.9138 145.16 43.6899 145.384 43.6899 145.66C43.6953 145.934 43.916 146.155 44.1899 146.16H86.9399C87.1909 146.163 87.4048 145.979 87.4399 145.73V145.66ZM86.9399 152.16C87.2161 152.16 87.4399 152.384 87.4399 152.66V152.74C87.4003 152.985 87.1876 153.164 86.9399 153.16H44.1899C43.9138 153.16 43.6899 152.937 43.6899 152.66C43.6899 152.384 43.9138 152.16 44.1899 152.16H86.9399Z" fill="#62719A"/>
<path fill-rule="evenodd" clip-rule="evenodd" d="M72.8815 166.035C71.5391 165.476 70.6659 164.164 70.6699 162.71C70.6699 160.733 72.2728 159.13 74.2499 159.13C75.7038 159.126 77.0165 159.999 77.5747 161.341C78.133 162.684 77.8265 164.23 76.7984 165.258C75.7704 166.286 74.2239 166.593 72.8815 166.035ZM86.6776 161.348C86.1225 160.006 84.8129 159.13 83.3599 159.13C82.4087 159.127 81.4956 159.503 80.822 160.175C80.1485 160.847 79.7699 161.759 79.7699 162.71C79.7659 164.163 80.638 165.475 81.9792 166.034C83.3203 166.593 84.8661 166.288 85.8949 165.262C86.9237 164.236 87.2327 162.691 86.6776 161.348Z" fill="#D2D7E2"/>
<path fill-rule="evenodd" clip-rule="evenodd" d="M157.58 249.77L155.67 257.87L155.69 257.89C155.559 258.451 155.066 258.853 154.49 258.87H150.49C149.892 258.873 149.374 258.455 149.25 257.87L147.33 249.77H157.58ZM230.72 258.87H234.67C235.271 258.874 235.792 258.457 235.92 257.87L237.83 249.77H227.56L229.48 257.87C229.604 258.455 230.122 258.873 230.72 258.87Z" fill="#132043"/>
<path fill-rule="evenodd" clip-rule="evenodd" d="M128.5 249.77L126.58 257.87L126.59 257.89C126.462 258.453 125.968 258.856 125.39 258.87H121.39C120.793 258.869 120.277 258.453 120.15 257.87L118.24 249.77H128.5ZM201.58 258.87H205.58C206.162 258.851 206.657 258.439 206.78 257.87L208.7 249.77H198.42L200.34 257.87C200.467 258.453 200.983 258.869 201.58 258.87Z" fill="#203570"/>
<path fill-rule="evenodd" clip-rule="evenodd" d="M118.53 251H128.21L127.59 253.65H119.16L118.53 251ZM199.39 253.69H207.81L208.44 251.04H198.76L199.39 253.69Z" fill="#132043"/>
<rect x="130.25" y="23.6299" width="112.58" height="227.5" rx="3.45" fill="#132043"/>
<rect x="113.24" y="23.6299" width="100.5" height="227.5" rx="3.45" fill="#203570"/>
<path d="M206.19 28.6797C207.593 28.6797 208.73 29.8169 208.73 31.2197L208.73 243.53C208.73 244.932 207.593 246.07 206.19 246.07H120.77C119.367 246.07 118.23 244.932 118.23 243.53L118.23 31.2197C118.23 29.8169 119.367 28.6797 120.77 28.6797L206.19 28.6797Z" fill="#9AA4BE"/>
<path fill-rule="evenodd" clip-rule="evenodd" d="M123 49.8196H204C204.357 49.8223 204.701 49.6823 204.954 49.4307C205.207 49.1791 205.35 48.8368 205.35 48.4796V33.7396C205.35 32.9941 204.746 32.3896 204 32.3896H123C122.254 32.3896 121.65 32.9941 121.65 33.7396V48.4796C121.65 48.8368 121.793 49.1791 122.046 49.4307C122.299 49.6823 122.643 49.8223 123 49.8196ZM205.35 55.1297V69.8697H205.36C205.36 70.2294 205.216 70.5743 204.961 70.8278C204.706 71.0813 204.36 71.2223 204 71.2197H123C122.254 71.2196 121.65 70.6152 121.65 69.8697V55.1297C121.65 54.7725 121.793 54.4302 122.046 54.1786C122.299 53.927 122.643 53.787 123 53.7896H204C204.357 53.787 204.701 53.927 204.954 54.1786C205.207 54.4302 205.35 54.7725 205.35 55.1297ZM205.35 91.2597V76.5296C205.353 76.1708 205.211 75.8258 204.958 75.5721C204.704 75.3183 204.359 75.177 204 75.1796H123C122.641 75.177 122.296 75.3183 122.042 75.5721C121.789 75.8258 121.647 76.1708 121.65 76.5296V91.2597C121.647 91.6185 121.789 91.9635 122.042 92.2172C122.296 92.471 122.641 92.6123 123 92.6096H204C204.361 92.615 204.708 92.4749 204.964 92.2208C205.22 91.9668 205.363 91.6203 205.36 91.2597H205.35ZM205.35 97.9196V112.65H205.36C205.363 113.01 205.22 113.357 204.964 113.611C204.708 113.865 204.361 114.005 204 114H123C122.641 114.002 122.296 113.861 122.042 113.607C121.789 113.353 121.647 113.009 121.65 112.65V97.9196C121.647 97.5608 121.789 97.2158 122.042 96.9621C122.296 96.7083 122.641 96.567 123 96.5696H204C204.359 96.567 204.704 96.7083 204.958 96.9621C205.211 97.2158 205.353 97.5608 205.35 97.9196ZM205.35 134.05V119.31C205.328 118.58 204.73 117.999 204 118H123C122.254 118 121.65 118.604 121.65 119.35V134.09C121.65 134.447 121.793 134.789 122.046 135.041C122.299 135.292 122.643 135.432 123 135.43H204C204.366 135.435 204.718 135.291 204.975 135.03C205.232 134.77 205.371 134.415 205.36 134.05H205.35ZM205.35 140.7V155.44H205.36C205.36 155.799 205.216 156.144 204.961 156.398C204.706 156.651 204.36 156.792 204 156.79H123C122.254 156.79 121.65 156.185 121.65 155.44V140.7C121.65 140.343 121.793 140 122.046 139.749C122.299 139.497 122.643 139.357 123 139.36H204C204.357 139.357 204.701 139.497 204.954 139.749C205.207 140 205.35 140.343 205.35 140.7ZM205.35 176.83V162.1C205.353 161.741 205.211 161.396 204.958 161.142C204.704 160.888 204.359 160.747 204 160.75H123C122.641 160.747 122.296 160.888 122.042 161.142C121.789 161.396 121.647 161.741 121.65 162.1V176.83C121.647 177.189 121.789 177.533 122.042 177.787C122.296 178.041 122.641 178.182 123 178.18H204C204.361 178.185 204.708 178.045 204.964 177.791C205.22 177.537 205.363 177.19 205.36 176.83H205.35ZM205.35 183.49V198.23H205.36C205.36 198.589 205.216 198.932 204.96 199.184C204.705 199.436 204.359 199.575 204 199.57H123C122.643 199.572 122.299 199.432 122.046 199.181C121.793 198.929 121.65 198.587 121.65 198.23V183.49C121.65 182.744 122.254 182.14 123 182.14H204C204.746 182.14 205.35 182.744 205.35 183.49ZM205.35 219.62V204.88C205.35 204.523 205.207 204.18 204.954 203.929C204.701 203.677 204.357 203.537 204 203.54H123C122.643 203.537 122.299 203.677 122.046 203.929C121.793 204.18 121.65 204.523 121.65 204.88V219.62C121.639 219.984 121.777 220.336 122.032 220.597C122.286 220.857 122.636 221.003 123 221H204C204.366 221.005 204.718 220.861 204.975 220.6C205.232 220.34 205.371 219.985 205.36 219.62H205.35ZM205.35 226.27V241.01L205.36 241C205.36 241.359 205.216 241.704 204.961 241.958C204.706 242.211 204.36 242.352 204 242.35H123C122.254 242.35 121.65 241.745 121.65 241V226.27C121.65 225.913 121.793 225.57 122.046 225.319C122.299 225.067 122.643 224.927 123 224.93H204C204.357 224.927 204.701 225.067 204.954 225.319C205.207 225.57 205.35 225.913 205.35 226.27Z" fill="#D2D7E2"/>
<path fill-rule="evenodd" clip-rule="evenodd" d="M142.61 42.1598H185.53C185.795 42.1598 186.049 42.0544 186.237 41.8669C186.425 41.6794 186.53 41.425 186.53 41.1598V41.0498C186.53 40.4975 186.082 40.0498 185.53 40.0498H142.61C142.058 40.0498 141.61 40.4975 141.61 41.0498V41.1598C141.61 41.7121 142.058 42.1598 142.61 42.1598ZM186.53 62.4398V62.5598C186.53 63.1121 186.082 63.5598 185.53 63.5598H142.61C142.058 63.5598 141.61 63.1121 141.61 62.5598V62.4398C141.61 61.8875 142.058 61.4398 142.61 61.4398H185.53C186.082 61.4398 186.53 61.8875 186.53 62.4398ZM186.53 83.9498V83.8398C186.53 83.2875 186.082 82.8398 185.53 82.8398H142.61C142.058 82.8398 141.61 83.2875 141.61 83.8398V83.9998C141.61 84.5521 142.058 84.9998 142.61 84.9998H185.53C186.082 84.9998 186.53 84.5521 186.53 83.9998V83.9498ZM186.53 105.23V105.34C186.53 105.892 186.082 106.34 185.53 106.34H142.61C142.058 106.34 141.61 105.892 141.61 105.34V105.23C141.61 104.678 142.058 104.23 142.61 104.23H185.53C186.082 104.23 186.53 104.678 186.53 105.23ZM186.53 126.74V126.62C186.53 126.068 186.082 125.62 185.53 125.62H142.61C142.058 125.62 141.61 126.068 141.61 126.62V126.74C141.61 127.292 142.058 127.74 142.61 127.74H185.53C186.082 127.74 186.53 127.292 186.53 126.74ZM186.53 148V148.13C186.519 148.674 186.074 149.11 185.53 149.11H142.61C142.058 149.11 141.61 148.662 141.61 148.11V148C141.61 147.448 142.058 147 142.61 147H185.53C186.082 147 186.53 147.448 186.53 148ZM186.53 169.52V169.41C186.53 168.858 186.082 168.41 185.53 168.41H142.61C142.058 168.41 141.61 168.858 141.61 169.41V169.52C141.61 170.072 142.058 170.52 142.61 170.52H185.53C186.082 170.52 186.53 170.072 186.53 169.52ZM186.53 190.8V190.91C186.53 191.462 186.082 191.91 185.53 191.91H142.61C142.058 191.91 141.61 191.462 141.61 190.91V190.8C141.61 190.248 142.058 189.8 142.61 189.8H185.53C186.082 189.8 186.53 190.248 186.53 190.8ZM186.53 212.31V212.19C186.53 211.638 186.082 211.19 185.53 211.19H142.61C142.058 211.19 141.61 211.638 141.61 212.19V212.31C141.61 212.862 142.058 213.31 142.61 213.31H185.53C186.082 213.31 186.53 212.862 186.53 212.31ZM186.53 233.59V233.7C186.53 234.252 186.082 234.7 185.53 234.7H142.61C142.058 234.7 141.61 234.252 141.61 233.7V233.59C141.61 233.038 142.058 232.59 142.61 232.59H185.53C186.082 232.59 186.53 233.038 186.53 233.59Z" fill="#D93954"/>
<path fill-rule="evenodd" clip-rule="evenodd" d="M194.26 40.3402H191.67C191.293 40.3428 190.93 40.1941 190.663 39.9272C190.396 39.6603 190.247 39.2976 190.25 38.9202V36.3302C190.25 35.9535 190.4 35.5924 190.666 35.3261C190.932 35.0598 191.293 34.9102 191.67 34.9102H194.26C195.042 34.9156 195.675 35.5482 195.68 36.3302V38.9202C195.68 39.7044 195.044 40.3402 194.26 40.3402ZM201.09 34.9102H198.5C198.123 34.9102 197.762 35.0598 197.496 35.3261C197.23 35.5924 197.08 35.9535 197.08 36.3302V38.9202C197.077 39.2976 197.226 39.6603 197.493 39.9272C197.76 40.1941 198.123 40.3428 198.5 40.3402H201.09C201.874 40.3402 202.51 39.7044 202.51 38.9202V36.3302C202.505 35.5482 201.872 34.9156 201.09 34.9102ZM198.5 47.1702H201.09C201.874 47.1702 202.51 46.5344 202.51 45.7502V43.1602C202.505 42.3782 201.872 41.7456 201.09 41.7402H198.5C197.716 41.7402 197.08 42.3759 197.08 43.1602V45.7502C197.077 46.1276 197.226 46.4903 197.493 46.7572C197.76 47.0241 198.123 47.1728 198.5 47.1702ZM190.25 45.7602V43.1702V43.1602C190.25 42.3759 190.886 41.7402 191.67 41.7402H194.26C195.042 41.7456 195.675 42.3782 195.68 43.1602V45.7602C195.68 46.5444 195.044 47.1802 194.26 47.1802H191.67C191.293 47.1828 190.93 47.0341 190.663 46.7672C190.396 46.5003 190.247 46.1376 190.25 45.7602ZM198.5 56.3202H201.09C201.87 56.3201 202.505 56.9498 202.51 57.7302V60.3302C202.505 61.1105 201.87 61.7402 201.09 61.7402H198.5C198.124 61.7428 197.763 61.5954 197.497 61.3307C197.23 61.066 197.08 60.7059 197.08 60.3302V57.7302C197.077 57.3527 197.226 56.99 197.493 56.7231C197.76 56.4562 198.123 56.3075 198.5 56.3102V56.3202ZM194.26 61.7402H191.67V61.7302C191.296 61.7328 190.936 61.5868 190.67 61.3243C190.404 61.0617 190.253 60.7041 190.25 60.3302V57.7302C190.25 57.3545 190.4 56.9943 190.667 56.7296C190.933 56.4649 191.294 56.3175 191.67 56.3202H194.26C195.04 56.3201 195.675 56.9498 195.68 57.7302V60.3302C195.675 61.1105 195.04 61.7402 194.26 61.7402ZM198.5 68.5702H201.09C201.87 68.5702 202.505 67.9405 202.51 67.1602V64.5602C202.505 63.7798 201.87 63.1501 201.09 63.1502H198.5C198.124 63.1475 197.763 63.2949 197.497 63.5596C197.23 63.8243 197.08 64.1845 197.08 64.5602V67.1602C197.083 67.5341 197.234 67.8917 197.5 68.1543C197.766 68.4168 198.126 68.5628 198.5 68.5602V68.5702ZM190.25 67.1702V64.5702V64.5502C190.261 63.7753 190.895 63.1546 191.67 63.1602H194.26C195.04 63.1601 195.675 63.7898 195.68 64.5702V67.1702C195.675 67.9505 195.04 68.5802 194.26 68.5802H191.67C191.294 68.5828 190.933 68.4354 190.667 68.1707C190.4 67.906 190.25 67.5458 190.25 67.1702ZM198.5 77.7002H201.09C201.874 77.7002 202.51 78.3359 202.51 79.1202V81.7102C202.505 82.4921 201.872 83.1247 201.09 83.1302H198.5C197.716 83.1302 197.08 82.4944 197.08 81.7102V79.1202C197.077 78.7427 197.226 78.38 197.493 78.1131C197.76 77.8462 198.123 77.6975 198.5 77.7002ZM194.26 83.1302H191.67C190.886 83.1302 190.25 82.4944 190.25 81.7102V79.1202C190.247 78.7427 190.396 78.38 190.663 78.1131C190.93 77.8462 191.293 77.6975 191.67 77.7002H194.26C195.044 77.7002 195.68 78.3359 195.68 79.1202V81.7102C195.675 82.4921 195.042 83.1247 194.26 83.1302ZM198.5 90.0002H201.09C201.872 89.9947 202.505 89.3621 202.51 88.5802V86.0002C202.51 85.2159 201.874 84.5802 201.09 84.5802H198.5C198.123 84.5775 197.76 84.7262 197.493 84.9931C197.226 85.26 197.077 85.6227 197.08 86.0002V88.5902C197.086 89.3705 197.72 90.0002 198.5 90.0002ZM190.25 88.5902V86.0002C190.247 85.6227 190.396 85.26 190.663 84.9931C190.93 84.7262 191.293 84.5775 191.67 84.5802H194.26C195.044 84.5802 195.68 85.2159 195.68 86.0002V88.5802C195.675 89.3621 195.042 89.9947 194.26 90.0002H191.67C190.89 90.0002 190.256 89.3705 190.25 88.5902ZM198.5 99.1402H201.09C201.872 99.1456 202.505 99.7782 202.51 100.56V103.15C202.505 103.932 201.872 104.565 201.09 104.57H198.5C197.716 104.57 197.08 103.934 197.08 103.15V100.56C197.066 100.175 197.21 99.8008 197.478 99.5236C197.746 99.2464 198.115 99.0899 198.5 99.0902V99.1402ZM194.26 104.57H191.67V104.52C190.905 104.521 190.277 103.915 190.25 103.15V100.56C190.25 99.7759 190.886 99.1402 191.67 99.1402H194.26C195.042 99.1456 195.675 99.7782 195.68 100.56V103.15C195.675 103.932 195.042 104.565 194.26 104.57ZM198.5 111.4H201.09C201.872 111.395 202.505 110.762 202.51 109.98V107.39C202.505 106.608 201.872 105.976 201.09 105.97H198.5C197.716 105.97 197.08 106.606 197.08 107.39V109.98C197.107 110.745 197.735 111.351 198.5 111.35V111.4ZM190.25 109.99V107.4V107.34C190.282 106.579 190.909 105.979 191.67 105.98H194.26C195.042 105.986 195.675 106.618 195.68 107.4V109.99C195.675 110.772 195.042 111.405 194.26 111.41H191.67C190.886 111.41 190.25 110.774 190.25 109.99ZM198.5 120.54H201.09C201.872 120.546 202.505 121.178 202.51 121.96V124.55C202.51 125.334 201.874 125.97 201.09 125.97H198.5C198.123 125.973 197.76 125.824 197.493 125.557C197.226 125.29 197.077 124.928 197.08 124.55V121.9C197.08 121.116 197.716 120.48 198.5 120.48V120.54ZM194.26 125.97H191.67V125.91C191.293 125.913 190.93 125.764 190.663 125.497C190.396 125.23 190.247 124.868 190.25 124.49V121.9C190.25 121.116 190.886 120.48 191.67 120.48H194.26C195.042 120.486 195.675 121.118 195.68 121.9V124.55C195.68 125.334 195.044 125.97 194.26 125.97ZM198.5 132.8H201.09C201.874 132.8 202.51 132.164 202.51 131.38V128.79C202.505 128.008 201.872 127.376 201.09 127.37H198.5C197.716 127.37 197.08 128.006 197.08 128.79V131.38C197.107 132.143 197.737 132.746 198.5 132.74V132.8ZM190.25 131.39V128.8V128.73C190.287 127.973 190.912 127.379 191.67 127.38H194.26C195.042 127.386 195.675 128.018 195.68 128.8V131.39C195.68 132.174 195.044 132.81 194.26 132.81H191.67C191.293 132.813 190.93 132.664 190.663 132.397C190.396 132.13 190.247 131.768 190.25 131.39ZM198.5 141.95H201.09C201.87 141.95 202.505 142.58 202.51 143.36V145.96C202.505 146.74 201.87 147.37 201.09 147.37H198.5C198.124 147.373 197.763 147.225 197.497 146.961C197.23 146.696 197.08 146.336 197.08 145.96V143.36C197.061 142.972 197.202 142.594 197.471 142.314C197.74 142.034 198.112 141.877 198.5 141.88V141.95ZM194.26 147.37H191.67V147.3C190.914 147.306 190.288 146.715 190.25 145.96V143.36C190.25 142.984 190.4 142.624 190.667 142.36C190.933 142.095 191.294 141.947 191.67 141.95H194.26C195.04 141.95 195.675 142.58 195.68 143.36V145.96C195.675 146.74 195.04 147.37 194.26 147.37ZM198.5 154.2H201.09C201.87 154.2 202.505 153.57 202.51 152.79V150.19C202.505 149.41 201.87 148.78 201.09 148.78H198.5C198.124 148.777 197.763 148.925 197.497 149.19C197.23 149.454 197.08 149.814 197.08 150.19V152.79C197.118 153.545 197.744 154.136 198.5 154.13V154.2ZM190.25 152.8V150.2V150.12C190.293 149.369 190.918 148.784 191.67 148.79H194.26C195.04 148.79 195.675 149.42 195.68 150.2V152.8C195.675 153.58 195.04 154.21 194.26 154.21H191.67C191.294 154.213 190.933 154.065 190.667 153.801C190.4 153.536 190.25 153.176 190.25 152.8ZM198.5 163.35H201.09C201.874 163.35 202.51 163.986 202.51 164.77V167.36C202.505 168.142 201.872 168.775 201.09 168.78H198.5C197.716 168.78 197.08 168.144 197.08 167.36V164.77C197.055 164.379 197.194 163.995 197.463 163.711C197.733 163.426 198.108 163.267 198.5 163.27V163.35ZM194.26 168.78H191.67V168.7C190.916 168.701 190.293 168.113 190.25 167.36V164.77C190.247 164.393 190.396 164.03 190.663 163.763C190.93 163.496 191.293 163.347 191.67 163.35H194.26C195.044 163.35 195.68 163.986 195.68 164.77V167.36C195.675 168.142 195.042 168.775 194.26 168.78ZM198.5 175.61H201.09C201.872 175.605 202.505 174.972 202.51 174.19V171.6C202.51 170.816 201.874 170.18 201.09 170.18H198.5C198.123 170.177 197.76 170.326 197.493 170.593C197.226 170.86 197.077 171.223 197.08 171.6V174.19C197.123 174.943 197.746 175.531 198.5 175.53V175.61ZM190.25 174.2V171.61V171.52C190.293 170.769 190.918 170.184 191.67 170.19H194.26C195.044 170.19 195.68 170.826 195.68 171.61V174.2C195.675 174.982 195.042 175.615 194.26 175.62H191.67C190.886 175.62 190.25 174.984 190.25 174.2ZM198.5 184.75H201.09C201.872 184.756 202.505 185.388 202.51 186.17V188.76C202.505 189.542 201.872 190.175 201.09 190.18H198.5C197.716 190.18 197.08 189.544 197.08 188.76V186.17C197.055 185.778 197.194 185.393 197.463 185.107C197.732 184.821 198.107 184.659 198.5 184.66V184.75ZM194.26 190.18H191.67V190.09C190.92 190.092 190.298 189.509 190.25 188.76V186.17C190.25 185.386 190.886 184.75 191.67 184.75H194.26C195.042 184.756 195.675 185.388 195.68 186.17V188.76C195.675 189.542 195.042 190.175 194.26 190.18ZM198.5 197.01H201.09C201.874 197.01 202.51 196.374 202.51 195.59V193C202.505 192.218 201.872 191.586 201.09 191.58H198.5C197.716 191.58 197.08 192.216 197.08 193V195.59C197.123 196.341 197.748 196.927 198.5 196.92V197.01ZM190.25 195.6V193.01V192.91C190.303 192.165 190.923 191.588 191.67 191.59H194.26C195.042 191.596 195.675 192.228 195.68 193.01V195.6C195.68 196.384 195.044 197.02 194.26 197.02H191.67C191.293 197.023 190.93 196.874 190.663 196.607C190.396 196.34 190.247 195.978 190.25 195.6ZM198.5 206.15H201.09C201.872 206.156 202.505 206.788 202.51 207.57V210.16C202.51 210.944 201.874 211.58 201.09 211.58H198.5C198.123 211.583 197.76 211.434 197.493 211.167C197.226 210.9 197.077 210.538 197.08 210.16V207.57C197.052 207.177 197.189 206.789 197.459 206.501C197.728 206.212 198.105 206.049 198.5 206.05V206.15ZM194.26 211.58H191.67V211.48C190.921 211.487 190.298 210.907 190.25 210.16V207.57C190.25 206.786 190.886 206.15 191.67 206.15H194.26C195.042 206.156 195.675 206.788 195.68 207.57V210.16C195.68 210.944 195.044 211.58 194.26 211.58ZM198.5 218.41H201.09C201.87 218.41 202.505 217.781 202.51 217V214.4C202.505 213.62 201.87 212.99 201.09 212.99H198.5C198.124 212.988 197.763 213.135 197.497 213.4C197.23 213.664 197.08 214.024 197.08 214.4V217C197.133 217.743 197.755 218.317 198.5 218.31V218.41ZM190.25 217.01V214.41V214.3C190.308 213.561 190.928 212.993 191.67 213H194.26C195.04 213 195.675 213.63 195.68 214.41V217.01C195.675 217.79 195.04 218.42 194.26 218.42H191.67C191.294 218.423 190.933 218.275 190.667 218.011C190.4 217.746 190.25 217.386 190.25 217.01ZM198.5 227.56H201.09C201.874 227.56 202.51 228.196 202.51 228.98V231.57C202.505 232.35 201.87 232.98 201.09 232.98H198.5C198.124 232.983 197.763 232.835 197.497 232.571C197.23 232.306 197.08 231.946 197.08 231.57V228.98C197.046 228.584 197.181 228.192 197.451 227.901C197.722 227.61 198.103 227.446 198.5 227.45V227.56ZM194.26 232.98H191.67V232.87C190.928 232.878 190.308 232.309 190.25 231.57V228.98C190.247 228.603 190.396 228.24 190.663 227.973C190.93 227.706 191.293 227.557 191.67 227.56H194.26C195.044 227.56 195.68 228.196 195.68 228.98V231.57C195.675 232.35 195.04 232.98 194.26 232.98ZM198.5 239.82H201.09C201.872 239.815 202.505 239.182 202.51 238.4V235.7C202.51 234.916 201.874 234.28 201.09 234.28H198.5C198.123 234.277 197.76 234.426 197.493 234.693C197.226 234.96 197.077 235.323 197.08 235.7V238.29C197.08 239.074 197.716 239.71 198.5 239.71V239.82ZM190.25 238.41V235.82V235.7C190.247 235.323 190.396 234.96 190.663 234.693C190.93 234.426 191.293 234.277 191.67 234.28H194.26C195.044 234.28 195.68 234.916 195.68 235.7V238.41C195.675 239.192 195.042 239.825 194.26 239.83H191.67C190.886 239.83 190.25 239.194 190.25 238.41Z" fill="#FFF5DE"/>
<path fill-rule="evenodd" clip-rule="evenodd" d="M223.13 203.54C222.782 203.537 222.447 203.675 222.201 203.921C221.954 204.167 221.817 204.502 221.82 204.85V244.76C221.82 245.484 222.406 246.07 223.13 246.07C223.853 246.07 224.44 245.484 224.44 244.76V204.85C224.44 204.138 223.872 203.556 223.16 203.54H223.13ZM218 246.07C217.276 246.07 216.69 245.484 216.69 244.76V204.85C216.69 204.127 217.276 203.54 218 203.54C218.349 203.537 218.685 203.674 218.933 203.92C219.181 204.166 219.32 204.501 219.32 204.85V244.76C219.314 245.485 218.725 246.07 218 246.07ZM226.94 204.85C226.94 204.127 227.526 203.54 228.25 203.54H228.28C228.996 203.551 229.57 204.134 229.57 204.85V244.76C229.564 245.485 228.975 246.07 228.25 246.07C227.526 246.07 226.94 245.484 226.94 244.76V204.85ZM233.38 203.54C233.032 203.537 232.697 203.675 232.451 203.921C232.204 204.167 232.067 204.502 232.07 204.85V244.76C232.07 245.484 232.656 246.07 233.38 246.07C234.103 246.07 234.69 245.484 234.69 244.76V204.85C234.69 204.138 234.122 203.556 233.41 203.54H233.38ZM237.19 204.85C237.19 204.127 237.776 203.54 238.5 203.54H238.53C239.246 203.551 239.82 204.134 239.82 204.85V244.76C239.814 245.485 239.225 246.07 238.5 246.07C237.776 246.07 237.19 245.484 237.19 244.76V204.85Z" fill="#203570"/>
<path fill-rule="evenodd" clip-rule="evenodd" d="M125.52 40.3404H137.26C137.832 40.3405 138.299 39.8825 138.31 39.3104V36.0004C138.31 35.4189 137.841 34.9459 137.26 34.9404H125.52C124.937 34.9459 124.465 35.4173 124.46 36.0004V39.2804C124.46 39.8659 124.934 40.3404 125.52 40.3404ZM138.31 42.8004V46.1104C138.313 46.3906 138.203 46.6603 138.006 46.8594C137.809 47.0584 137.54 47.1704 137.26 47.1704H125.52C124.934 47.1704 124.46 46.6959 124.46 46.1104V42.8004C124.465 42.2173 124.937 41.7459 125.52 41.7404H137.26C137.841 41.7459 138.31 42.2189 138.31 42.8004ZM138.31 60.6804V57.3604C138.31 57.0863 138.198 56.8241 138 56.635C137.801 56.446 137.534 56.3467 137.26 56.3604H125.52C124.957 56.3595 124.492 56.7986 124.46 57.3604V60.6804C124.492 61.2423 124.957 61.6813 125.52 61.6804H137.26C137.534 61.6941 137.801 61.5949 138 61.4058C138.198 61.2168 138.31 60.9545 138.31 60.6804ZM138.31 64.1904V67.5104C138.31 67.7845 138.198 68.0468 138 68.2358C137.801 68.4249 137.534 68.5241 137.26 68.5104H125.52C124.957 68.5113 124.492 68.0723 124.46 67.5104V64.1904C124.492 63.6286 124.957 63.1895 125.52 63.1904H137.26C137.534 63.1767 137.801 63.276 138 63.465C138.198 63.6541 138.31 63.9163 138.31 64.1904ZM138.31 82.0704V78.7504C138.31 78.4763 138.198 78.2141 138 78.025C137.801 77.836 137.534 77.7367 137.26 77.7504H125.52C124.957 77.7495 124.492 78.1886 124.46 78.7504V82.0704C124.465 82.6536 124.937 83.125 125.52 83.1304H137.26C137.841 83.1249 138.31 82.652 138.31 82.0704ZM138.31 85.5904V88.9004C138.321 89.1867 138.215 89.4652 138.017 89.6724C137.82 89.8796 137.546 89.9979 137.26 90.0004H125.52C125.233 89.9979 124.958 89.8798 124.759 89.6729C124.56 89.466 124.452 89.1876 124.46 88.9004V85.5904C124.46 85.005 124.934 84.5304 125.52 84.5304H137.26C137.54 84.5304 137.809 84.6424 138.006 84.8415C138.203 85.0406 138.313 85.3102 138.31 85.5904ZM138.31 103.46V100.15C138.313 99.8702 138.203 99.6006 138.006 99.4015C137.809 99.2024 137.54 99.0904 137.26 99.0904H125.52C124.934 99.0904 124.46 99.565 124.46 100.15V103.46C124.46 104.046 124.934 104.52 125.52 104.52H137.26C137.54 104.52 137.809 104.408 138.006 104.209C138.203 104.01 138.313 103.741 138.31 103.46ZM138.31 107V110.29C138.318 110.574 138.211 110.849 138.013 111.052C137.815 111.256 137.544 111.371 137.26 111.37H125.52C124.934 111.37 124.46 110.896 124.46 110.31V107C124.46 106.719 124.572 106.45 124.77 106.251C124.969 106.052 125.239 105.94 125.52 105.94H137.26C137.54 105.94 137.809 106.052 138.006 106.251C138.203 106.451 138.313 106.72 138.31 107ZM138.31 124.85V121.54C138.31 120.959 137.841 120.486 137.26 120.48H125.52C124.937 120.486 124.465 120.957 124.46 121.54V124.85C124.46 125.436 124.934 125.91 125.52 125.91H137.26C137.54 125.91 137.809 125.798 138.006 125.599C138.203 125.4 138.313 125.131 138.31 124.85ZM138.31 128.37V131.69C138.324 131.973 138.218 132.249 138.018 132.449C137.818 132.649 137.543 132.755 137.26 132.74H125.52C124.938 132.74 124.465 132.272 124.46 131.69V128.37C124.465 127.787 124.937 127.316 125.52 127.31H137.26C137.841 127.316 138.31 127.789 138.31 128.37ZM138.31 146.25V142.93C138.324 142.648 138.218 142.372 138.018 142.172C137.818 141.972 137.543 141.866 137.26 141.88H125.52C124.938 141.88 124.465 142.349 124.46 142.93V146.25C124.465 146.832 124.938 147.3 125.52 147.3H137.26C137.543 147.315 137.818 147.209 138.018 147.009C138.218 146.809 138.324 146.533 138.31 146.25ZM138.31 149.76V153.08C138.31 153.355 138.198 153.617 138 153.806C137.801 153.995 137.534 154.094 137.26 154.08H125.52C124.957 154.081 124.492 153.642 124.46 153.08V149.76C124.492 149.199 124.957 148.76 125.52 148.76H137.26C137.534 148.747 137.801 148.846 138 149.035C138.198 149.224 138.31 149.486 138.31 149.76ZM138.31 167.64V164.33C138.313 164.05 138.203 163.781 138.006 163.581C137.809 163.382 137.54 163.27 137.26 163.27H125.52C125.239 163.27 124.969 163.382 124.77 163.581C124.572 163.78 124.46 164.049 124.46 164.33V167.64C124.465 168.224 124.937 168.695 125.52 168.7H137.26C137.841 168.695 138.31 168.222 138.31 167.64ZM138.31 171.16V174.47C138.31 175.052 137.841 175.525 137.26 175.53H125.52C124.937 175.525 124.465 175.054 124.46 174.47V171.16C124.46 170.575 124.934 170.1 125.52 170.1H137.26C137.54 170.1 137.809 170.212 138.006 170.411C138.203 170.611 138.313 170.88 138.31 171.16ZM138.31 189.02V189V185.72C138.31 185.139 137.841 184.666 137.26 184.66H125.52C124.937 184.666 124.465 185.137 124.46 185.72V189C124.46 189.586 124.934 190.06 125.52 190.06H137.26C137.54 190.06 137.809 189.948 138.006 189.749C138.198 189.555 138.307 189.293 138.31 189.02ZM138.31 192.55V195.86C138.313 196.141 138.203 196.41 138.006 196.609C137.809 196.808 137.54 196.92 137.26 196.92H125.52C125.239 196.92 124.969 196.809 124.77 196.61C124.572 196.411 124.46 196.142 124.46 195.86V192.55C124.465 191.967 124.937 191.496 125.52 191.49H137.26C137.841 191.496 138.31 191.969 138.31 192.55ZM138.31 210.43V207.11C138.31 206.529 137.841 206.056 137.26 206.05H125.52C124.937 206.056 124.465 206.527 124.46 207.11V210.43C124.492 210.992 124.957 211.431 125.52 211.43H137.26C137.534 211.444 137.801 211.345 138 211.156C138.198 210.967 138.31 210.705 138.31 210.43ZM138.31 213.94V217.26C138.324 217.543 138.218 217.819 138.018 218.019C137.818 218.219 137.543 218.325 137.26 218.31H125.52C124.938 218.31 124.465 217.842 124.46 217.26V213.94C124.465 213.359 124.938 212.89 125.52 212.89H137.26C137.543 212.876 137.818 212.982 138.018 213.182C138.218 213.382 138.324 213.658 138.31 213.94ZM138.31 231.82V228.5C138.324 228.218 138.218 227.942 138.018 227.742C137.818 227.542 137.543 227.436 137.26 227.45H125.52C124.938 227.45 124.465 227.919 124.46 228.5V231.82C124.465 232.402 124.938 232.87 125.52 232.87H137.26C137.543 232.885 137.818 232.779 138.018 232.579C138.218 232.379 138.324 232.103 138.31 231.82ZM125.52 239.71H137.26C137.841 239.705 138.31 239.232 138.31 238.65V235.34C138.313 235.06 138.203 234.791 138.006 234.591C137.809 234.392 137.54 234.28 137.26 234.28H125.52C124.934 234.28 124.46 234.755 124.46 235.34V238.65C124.465 239.234 124.937 239.705 125.52 239.71Z" fill="#9AA4BE"/>
<path d="M116.78 239.22L114.66 250.45C115.239 250.879 115.939 251.114 116.66 251.12H146.46L129.8 227.63L116.78 239.22Z" fill="#132043"/>
<path d="M120.78 246.07H142.9L129.83 227.63L118.24 237.93V243.52C118.24 244.924 119.376 246.064 120.78 246.07Z" fill="#62719A"/>
<path d="M123 242.36H140.31L129.87 227.63L121.65 234.93V241C121.647 241.36 121.788 241.706 122.042 241.961C122.295 242.216 122.64 242.36 123 242.36Z" fill="#9AA4BE"/>
<path fill-rule="evenodd" clip-rule="evenodd" d="M133.52 232.87H125.52C125.112 232.891 124.731 232.661 124.56 232.29L129.8 227.63L133.52 232.87ZM134.52 234.28H125.52C125.237 234.28 124.966 234.393 124.767 234.594C124.568 234.795 124.457 235.067 124.46 235.35V238.66C124.465 239.243 124.937 239.714 125.52 239.72H137.23C137.561 239.712 137.868 239.549 138.06 239.28L134.52 234.28Z" fill="#62719A"/>
<path fill-rule="evenodd" clip-rule="evenodd" d="M291.01 249.77L289.1 257.87L289.12 257.89C288.988 258.451 288.496 258.853 287.92 258.87H283.92C283.321 258.873 282.803 258.455 282.68 257.87L280.76 249.77H291.01ZM364.1 258.87H368.1C368.682 258.851 369.176 258.439 369.3 257.87L371.21 249.77H360.94L362.86 257.87C362.983 258.455 363.501 258.873 364.1 258.87Z" fill="#132043"/>
<path fill-rule="evenodd" clip-rule="evenodd" d="M261.92 249.77L260 257.87V257.89C259.874 258.446 259.39 258.847 258.82 258.87H254.82C254.223 258.869 253.707 258.453 253.58 257.87L251.67 249.77H261.92ZM335 258.87H339C339.582 258.851 340.076 258.439 340.2 257.87L342.12 249.77H331.85L333.76 257.87C333.887 258.453 334.403 258.869 335 258.87Z" fill="#203570"/>
<path fill-rule="evenodd" clip-rule="evenodd" d="M252 251H261.64L261 253.65H252.63L252 251ZM332.82 253.69H341.25L341.87 251.04H332.19L332.82 253.69Z" fill="#132043"/>
<rect x="263.68" y="108.64" width="112.58" height="142.49" rx="3.45" fill="#132043"/>
<rect x="246.67" y="108.64" width="100.5" height="142.49" rx="3.45" fill="#203570"/>
<path d="M339.63 113.69C341.033 113.69 342.17 114.828 342.17 116.23V243.53C342.17 244.933 341.033 246.07 339.63 246.07H254.21C252.807 246.07 251.67 244.933 251.67 243.53V116.23C251.67 114.828 252.807 113.69 254.21 113.69H339.63Z" fill="#9AA4BE"/>
<path fill-rule="evenodd" clip-rule="evenodd" d="M256.39 135.39H337.44C337.797 135.393 338.141 135.253 338.394 135.001C338.648 134.749 338.79 134.407 338.79 134.05V119.31C338.79 118.564 338.186 117.96 337.44 117.96H256.39C255.644 117.96 255.04 118.564 255.04 119.31V134.05C255.04 134.407 255.183 134.749 255.436 135.001C255.69 135.253 256.033 135.393 256.39 135.39ZM338.79 140.7V155.44C338.79 155.805 338.642 156.155 338.381 156.409C338.119 156.663 337.765 156.801 337.4 156.79H256.35C255.604 156.79 255 156.186 255 155.44V140.7C255 140.336 255.148 139.987 255.41 139.734C255.672 139.482 256.026 139.346 256.39 139.36H337.44C337.797 139.357 338.141 139.497 338.394 139.749C338.648 140 338.79 140.343 338.79 140.7ZM338.79 176.83V162.1C338.793 161.741 338.651 161.396 338.398 161.142C338.144 160.889 337.799 160.747 337.44 160.75H256.39C256.024 160.736 255.669 160.873 255.406 161.128C255.144 161.383 254.997 161.734 255 162.1V176.83C254.997 177.189 255.139 177.534 255.392 177.788C255.646 178.041 255.991 178.183 256.35 178.18H337.4C337.766 178.194 338.121 178.057 338.384 177.802C338.646 177.547 338.793 177.196 338.79 176.83ZM338.79 183.49V198.23C338.79 198.587 338.648 198.929 338.394 199.181C338.141 199.433 337.797 199.573 337.44 199.57H256.39C256.033 199.573 255.69 199.433 255.436 199.181C255.183 198.929 255.04 198.587 255.04 198.23V183.49C255.04 182.744 255.644 182.14 256.39 182.14H337.44C338.186 182.14 338.79 182.744 338.79 183.49ZM338.79 219.62V204.88C338.79 204.523 338.648 204.18 338.394 203.929C338.141 203.677 337.797 203.537 337.44 203.54H256.39C256.033 203.537 255.69 203.677 255.436 203.929C255.183 204.18 255.04 204.523 255.04 204.88V219.62C255.04 219.977 255.183 220.319 255.436 220.571C255.69 220.823 256.033 220.963 256.39 220.96H337.44C337.797 220.963 338.141 220.823 338.394 220.571C338.648 220.319 338.79 219.977 338.79 219.62ZM338.79 226.27V241C338.79 241.746 338.186 242.35 337.44 242.35H256.39C255.644 242.35 255.04 241.746 255.04 241V226.27C255.04 225.913 255.183 225.57 255.436 225.319C255.69 225.067 256.033 224.927 256.39 224.93H337.44C337.797 224.927 338.141 225.067 338.394 225.319C338.648 225.57 338.79 225.913 338.79 226.27Z" fill="#D2D7E2"/>
<path fill-rule="evenodd" clip-rule="evenodd" d="M276 127.74H319C319.552 127.74 320 127.292 320 126.74V126.62C320 126.068 319.552 125.62 319 125.62H276C275.448 125.62 275 126.068 275 126.62V126.74C275 127.292 275.448 127.74 276 127.74ZM320 148V148.13C319.989 148.675 319.545 149.11 319 149.11H276C275.448 149.11 275 148.662 275 148.11V148C275 147.448 275.448 147 276 147H319C319.552 147 320 147.448 320 148ZM320 169.52V169.41C320 168.858 319.552 168.41 319 168.41H276C275.448 168.41 275 168.858 275 169.41V169.52C275 170.072 275.448 170.52 276 170.52H319C319.552 170.52 320 170.072 320 169.52ZM320 190.8V190.91C320 191.462 319.552 191.91 319 191.91H276C275.448 191.91 275 191.462 275 190.91V190.8C275 190.248 275.448 189.8 276 189.8H319C319.552 189.8 320 190.248 320 190.8ZM320 212.31V212.19C320 211.638 319.552 211.19 319 211.19H276C275.448 211.19 275 211.638 275 212.19V212.31C275 212.862 275.448 213.31 276 213.31H319C319.552 213.31 320 212.862 320 212.31ZM320 233.59V233.7C320 234.252 319.552 234.7 319 234.7H276C275.448 234.7 275 234.252 275 233.7V233.59C275 233.038 275.448 232.59 276 232.59H319C319.552 232.59 320 233.038 320 233.59Z" fill="#D93954"/>
<path fill-rule="evenodd" clip-rule="evenodd" d="M259 125.91H270.69C270.979 125.924 271.261 125.818 271.469 125.618C271.677 125.417 271.793 125.14 271.79 124.85V121.54C271.79 120.959 271.322 120.486 270.74 120.48H259C258.419 120.486 257.95 120.959 257.95 121.54V124.85C257.947 125.131 258.057 125.4 258.254 125.599C258.451 125.798 258.72 125.91 259 125.91ZM271.74 128.37V131.69C271.754 131.964 271.654 132.232 271.465 132.43C271.276 132.629 271.014 132.741 270.74 132.74H259C258.717 132.755 258.442 132.649 258.242 132.449C258.041 132.249 257.936 131.973 257.95 131.69V128.37C257.95 127.789 258.419 127.316 259 127.31H270.69C271.272 127.316 271.74 127.789 271.74 128.37ZM271.74 146.25V142.93C271.755 142.648 271.649 142.372 271.448 142.172C271.248 141.972 270.973 141.866 270.69 141.88H259C258.717 141.866 258.442 141.972 258.242 142.172C258.041 142.372 257.936 142.648 257.95 142.93V146.25C257.936 146.533 258.041 146.809 258.242 147.009C258.442 147.209 258.717 147.315 259 147.3H270.74C271.014 147.301 271.276 147.189 271.465 146.99C271.654 146.792 271.754 146.524 271.74 146.25ZM271.74 149.76V153.08C271.74 153.346 271.635 153.6 271.447 153.788C271.26 153.975 271.005 154.08 270.74 154.08H259C258.726 154.094 258.459 153.995 258.26 153.806C258.062 153.617 257.95 153.355 257.95 153.08V149.76C257.95 149.486 258.062 149.224 258.26 149.035C258.459 148.846 258.726 148.747 259 148.76H270.69C270.964 148.747 271.231 148.846 271.43 149.035C271.628 149.224 271.74 149.486 271.74 149.76ZM271.74 167.64V164.33C271.743 164.05 271.633 163.781 271.436 163.582C271.239 163.382 270.97 163.27 270.69 163.27H259C258.72 163.27 258.451 163.382 258.254 163.582C258.057 163.781 257.947 164.05 257.95 164.33V167.64C257.95 168.222 258.419 168.695 259 168.7H270.74C271.302 168.669 271.741 168.203 271.74 167.64ZM271.74 171.16V174.47C271.741 175.033 271.302 175.499 270.74 175.53H259C258.419 175.525 257.95 175.052 257.95 174.47V171.16C257.947 170.88 258.057 170.611 258.254 170.412C258.451 170.212 258.72 170.1 259 170.1H270.69C270.97 170.1 271.239 170.212 271.436 170.412C271.633 170.611 271.743 170.88 271.74 171.16ZM271.74 189V185.72C271.74 185.139 271.272 184.666 270.69 184.66H259C258.419 184.666 257.95 185.139 257.95 185.72V189C257.947 189.281 258.057 189.55 258.254 189.749C258.451 189.948 258.72 190.06 259 190.06H270.74C271.297 190.034 271.734 189.578 271.74 189.023V189ZM271.74 192.55V195.86C271.746 196.425 271.304 196.894 270.74 196.92H259C258.72 196.92 258.451 196.808 258.254 196.609C258.057 196.41 257.947 196.141 257.95 195.86V192.55C257.95 191.969 258.419 191.496 259 191.49H270.69C271.272 191.496 271.74 191.969 271.74 192.55ZM271.74 210.43V207.11C271.74 206.529 271.272 206.056 270.69 206.05H259C258.419 206.056 257.95 206.529 257.95 207.11V210.43C257.95 210.705 258.062 210.967 258.26 211.156C258.459 211.345 258.726 211.444 259 211.43H270.74C271.292 211.43 271.74 210.983 271.74 210.43ZM271.74 213.94V217.26C271.754 217.534 271.654 217.802 271.465 218C271.276 218.199 271.014 218.311 270.74 218.31H259C258.717 218.325 258.442 218.219 258.242 218.019C258.041 217.819 257.936 217.543 257.95 217.26V213.94C257.936 213.658 258.041 213.382 258.242 213.182C258.442 212.982 258.717 212.876 259 212.89H270.69C270.973 212.876 271.248 212.982 271.448 213.182C271.649 213.382 271.755 213.658 271.74 213.94ZM271.74 231.82V228.5C271.755 228.218 271.649 227.942 271.448 227.742C271.248 227.542 270.973 227.436 270.69 227.45H259C258.717 227.436 258.442 227.542 258.242 227.742C258.041 227.942 257.936 228.218 257.95 228.5V231.82C257.936 232.103 258.041 232.379 258.242 232.579C258.442 232.779 258.717 232.885 259 232.87H270.74C271.014 232.871 271.276 232.759 271.465 232.56C271.654 232.362 271.754 232.094 271.74 231.82ZM271.74 235.34V238.65C271.741 239.213 271.302 239.679 270.74 239.71H259C258.419 239.705 257.95 239.232 257.95 238.65V235.34C257.947 235.06 258.057 234.791 258.254 234.592C258.451 234.392 258.72 234.28 259 234.28H270.69C270.97 234.28 271.239 234.392 271.436 234.592C271.633 234.791 271.743 235.06 271.74 235.34Z" fill="#9AA4BE"/>
<path d="M254.21 113.69C252.806 113.696 251.67 114.836 251.67 116.24V243.52C251.67 244.925 252.806 246.065 254.21 246.07H283.34L260.52 113.69H254.21Z" fill="#62719A"/>
<path fill-rule="evenodd" clip-rule="evenodd" d="M256.38 117.96C255.634 117.96 255.03 118.564 255.03 119.31V134.05C255.03 134.407 255.173 134.749 255.426 135.001C255.68 135.253 256.023 135.393 256.38 135.39H264.25L261.25 117.96H256.38ZM256.38 139.36C256.018 139.349 255.667 139.486 255.407 139.738C255.147 139.99 255 140.338 255 140.7V155.44C255 156.186 255.604 156.79 256.35 156.79H268L265 139.36H256.38ZM279 221L276 203.54H256.39C256.033 203.537 255.69 203.677 255.436 203.929C255.183 204.18 255.04 204.523 255.04 204.88V219.66C255.04 220.017 255.183 220.359 255.436 220.611C255.69 220.863 256.033 221.003 256.39 221H279ZM255.426 225.319C255.68 225.067 256.023 224.927 256.38 224.93L279.7 224.92L282.7 242.35H256.38C255.634 242.35 255.03 241.746 255.03 241V226.27C255.03 225.913 255.173 225.57 255.426 225.319ZM255.03 183.49C255.03 182.744 255.634 182.14 256.38 182.14H272.32L275.32 199.57H256.38C256.023 199.573 255.68 199.433 255.426 199.181C255.173 198.929 255.03 198.587 255.03 198.23V183.49ZM255.403 161.131C255.663 160.877 256.016 160.739 256.38 160.75H268.6L271.6 178.18H256.35C255.991 178.183 255.646 178.041 255.392 177.788C255.139 177.534 254.997 177.189 255 176.83V162.1C254.997 161.736 255.143 161.386 255.403 161.131Z" fill="#9AA4BE"/>
<path fill-rule="evenodd" clip-rule="evenodd" d="M327.69 125.91H325.1C324.722 125.913 324.36 125.764 324.093 125.498C323.826 125.231 323.677 124.868 323.68 124.49V121.9C323.68 121.116 324.315 120.48 325.1 120.48H327.69C328.472 120.486 329.104 121.118 329.11 121.9V124.49C329.11 125.275 328.474 125.91 327.69 125.91ZM334.52 120.48H331.93C331.145 120.48 330.51 121.116 330.51 121.9V124.49C330.507 124.868 330.656 125.231 330.923 125.498C331.19 125.764 331.552 125.913 331.93 125.91H334.52C335.304 125.91 335.94 125.275 335.94 124.49V121.9C335.934 121.118 335.302 120.486 334.52 120.48ZM331.93 132.74H334.52C335.304 132.74 335.94 132.105 335.94 131.32V128.73C335.934 127.948 335.302 127.316 334.52 127.31H331.93C331.145 127.31 330.51 127.946 330.51 128.73V131.32C330.507 131.698 330.656 132.061 330.923 132.328C331.19 132.594 331.552 132.743 331.93 132.74ZM323.68 131.33V128.74V128.73C323.685 127.95 324.319 127.32 325.1 127.32H327.69C328.472 127.326 329.104 127.958 329.11 128.74V131.33C329.11 132.115 328.474 132.75 327.69 132.75H325.1C324.722 132.753 324.36 132.604 324.093 132.338C323.826 132.071 323.677 131.708 323.68 131.33ZM331.93 141.89H334.52C335.3 141.89 335.934 142.52 335.94 143.3V145.9C335.934 146.681 335.3 147.31 334.52 147.31H331.93C331.554 147.313 331.193 147.166 330.926 146.901C330.66 146.636 330.51 146.276 330.51 145.9V143.3C330.507 142.923 330.656 142.56 330.923 142.293C331.19 142.027 331.552 141.878 331.93 141.88V141.89ZM327.69 147.31H325.1V147.3C324.726 147.303 324.366 147.157 324.1 146.895C323.833 146.632 323.682 146.274 323.68 145.9V143.3C323.68 142.925 323.83 142.565 324.096 142.3C324.363 142.035 324.724 141.888 325.1 141.89H327.69C328.47 141.89 329.104 142.52 329.11 143.3V145.9C329.104 146.681 328.47 147.31 327.69 147.31ZM331.93 154.14H334.52C335.3 154.14 335.934 153.511 335.94 152.73V150.13C335.934 149.35 335.3 148.72 334.52 148.72H331.93C331.554 148.718 331.193 148.865 330.926 149.13C330.66 149.395 330.51 149.755 330.51 150.13V152.73C330.512 153.104 330.663 153.462 330.93 153.725C331.196 153.987 331.556 154.133 331.93 154.13V154.14ZM323.68 152.74V150.14V150.12C323.691 149.346 324.325 148.725 325.1 148.73H327.69C328.47 148.73 329.104 149.36 329.11 150.14V152.74C329.104 153.521 328.47 154.15 327.69 154.15H325.1C324.724 154.153 324.363 154.006 324.096 153.741C323.83 153.476 323.68 153.116 323.68 152.74ZM331.93 163.29H334.52C335.304 163.29 335.94 163.926 335.94 164.71V167.3C335.934 168.082 335.302 168.715 334.52 168.72H331.93C331.145 168.72 330.51 168.085 330.51 167.3V164.71C330.502 164.33 330.648 163.962 330.915 163.69C331.183 163.419 331.549 163.268 331.93 163.27V163.29ZM327.69 168.72H325.1V168.7C324.323 168.701 323.691 168.077 323.68 167.3V164.71C323.677 164.333 323.826 163.97 324.093 163.703C324.36 163.437 324.722 163.288 325.1 163.29H327.69C328.474 163.29 329.11 163.926 329.11 164.71V167.3C329.104 168.082 328.472 168.715 327.69 168.72ZM331.93 175.55H334.52C335.302 175.545 335.934 174.912 335.94 174.13V171.54C335.94 170.756 335.304 170.12 334.52 170.12H331.93C331.552 170.118 331.19 170.267 330.923 170.533C330.656 170.8 330.507 171.163 330.51 171.54V174.13C330.521 174.907 331.153 175.531 331.93 175.53V175.55ZM323.68 174.14V171.55V171.52C323.691 170.746 324.325 170.125 325.1 170.13H327.69C328.066 170.13 328.428 170.28 328.694 170.546C328.96 170.813 329.11 171.174 329.11 171.55V174.14C329.104 174.922 328.472 175.555 327.69 175.56H325.1C324.315 175.56 323.68 174.925 323.68 174.14ZM331.93 184.69H334.52C335.302 184.696 335.934 185.328 335.94 186.11V188.7C335.934 189.482 335.302 190.115 334.52 190.12H331.93C331.145 190.12 330.51 189.485 330.51 188.7V186.11C330.502 185.729 330.648 185.36 330.915 185.087C331.182 184.814 331.548 184.66 331.93 184.66V184.69ZM327.69 190.12H325.1V190.09C324.327 190.091 323.696 189.473 323.68 188.7V186.11C323.68 185.326 324.315 184.69 325.1 184.69H327.69C328.472 184.696 329.104 185.328 329.11 186.11V188.7C329.104 189.482 328.472 190.115 327.69 190.12ZM331.93 196.95H334.52C335.304 196.95 335.94 196.315 335.94 195.53V192.94C335.934 192.158 335.302 191.526 334.52 191.52H331.93C331.145 191.52 330.51 192.156 330.51 192.94V195.53C330.521 196.305 331.155 196.926 331.93 196.92V196.95ZM323.68 195.54V192.95V192.91C323.701 192.142 324.331 191.53 325.1 191.53H327.69C328.472 191.536 329.104 192.168 329.11 192.95V195.54C329.11 196.325 328.474 196.96 327.69 196.96H325.1C324.722 196.963 324.36 196.814 324.093 196.548C323.826 196.281 323.677 195.918 323.68 195.54ZM331.93 206.09H334.52C335.302 206.096 335.934 206.728 335.94 207.51V210.1C335.94 210.885 335.304 211.52 334.52 211.52H331.93C331.552 211.523 331.19 211.374 330.923 211.108C330.656 210.841 330.507 210.478 330.51 210.1V207.51C330.499 207.127 330.644 206.755 330.911 206.48C331.179 206.205 331.546 206.05 331.93 206.05V206.09ZM327.69 211.52H325.1V211.48C324.329 211.486 323.696 210.871 323.68 210.1V207.51C323.68 206.726 324.315 206.09 325.1 206.09H327.69C328.472 206.096 329.104 206.728 329.11 207.51V210.1C329.11 210.885 328.474 211.52 327.69 211.52ZM331.93 218.35H334.52C335.3 218.35 335.934 217.721 335.94 216.94V214.34C335.934 213.56 335.3 212.93 334.52 212.93H331.93C331.554 212.928 331.193 213.075 330.926 213.34C330.66 213.605 330.51 213.965 330.51 214.34V216.94C330.531 217.707 331.162 218.316 331.93 218.31V218.35ZM323.68 216.95V214.35V214.3C323.707 213.537 324.336 212.935 325.1 212.94H327.69C328.47 212.94 329.104 213.57 329.11 214.35V216.95C329.104 217.731 328.47 218.36 327.69 218.36H325.1C324.724 218.363 324.363 218.216 324.096 217.951C323.83 217.686 323.68 217.326 323.68 216.95ZM331.93 227.5H334.52C335.304 227.5 335.94 228.136 335.94 228.92V231.51C335.934 232.291 335.3 232.92 334.52 232.92H331.93C331.554 232.923 331.193 232.776 330.926 232.511C330.66 232.246 330.51 231.886 330.51 231.51V228.92C330.493 228.534 330.636 228.159 330.904 227.881C331.173 227.603 331.543 227.447 331.93 227.45V227.5ZM327.69 232.92H325.1V232.87C324.336 232.876 323.707 232.273 323.68 231.51V228.92C323.677 228.543 323.826 228.18 324.093 227.913C324.36 227.647 324.722 227.498 325.1 227.5H327.69C328.474 227.5 329.11 228.136 329.11 228.92V231.51C329.104 232.291 328.47 232.92 327.69 232.92ZM331.93 239.76H334.52C335.302 239.755 335.934 239.122 335.94 238.34V235.7C335.94 234.916 335.304 234.28 334.52 234.28H331.93C331.552 234.278 331.19 234.427 330.923 234.693C330.656 234.96 330.507 235.323 330.51 235.7V238.29C330.51 239.075 331.145 239.71 331.93 239.71V239.76ZM323.68 238.35V235.76V235.7C323.677 235.323 323.826 234.96 324.093 234.693C324.36 234.427 324.722 234.278 325.1 234.28H327.69C328.066 234.28 328.428 234.43 328.694 234.696C328.96 234.963 329.11 235.324 329.11 235.7V238.35C329.104 239.132 328.472 239.765 327.69 239.77H325.1C324.315 239.77 323.68 239.135 323.68 238.35Z" fill="#FFF5DE"/>
<path fill-rule="evenodd" clip-rule="evenodd" d="M257.95 121.54C257.95 120.959 258.418 120.486 259 120.48H261.74L262.67 125.91H259C258.72 125.91 258.451 125.798 258.254 125.599C258.057 125.4 257.947 125.131 257.95 124.85V121.54ZM259 127.31C258.418 127.316 257.95 127.789 257.95 128.37V131.68C257.947 131.961 258.057 132.23 258.254 132.429C258.451 132.628 258.72 132.74 259 132.74H263.85L262.92 127.31H259ZM259 170.1C258.72 170.1 258.451 170.212 258.254 170.412C258.057 170.611 257.947 170.88 257.95 171.16V174.47C257.95 175.052 258.418 175.525 259 175.53H270.74C270.905 175.527 271.066 175.482 271.21 175.4L270.29 170.1H259ZM271.436 189.749C271.633 189.55 271.743 189.281 271.74 189V185.69C271.74 185.109 271.271 184.636 270.69 184.63H258.95C258.368 184.636 257.9 185.109 257.9 185.69V189C257.897 189.29 258.013 189.567 258.221 189.768C258.429 189.968 258.711 190.074 259 190.06H270.69C270.97 190.06 271.239 189.948 271.436 189.749ZM259 227.42H270.69V227.45C270.981 227.421 271.27 227.52 271.482 227.722C271.694 227.924 271.806 228.208 271.79 228.5V231.79C271.804 232.073 271.699 232.349 271.498 232.549C271.298 232.749 271.023 232.855 270.74 232.84H259C258.717 232.855 258.442 232.749 258.242 232.549C258.041 232.349 257.935 232.073 257.95 231.79V228.47C257.935 228.188 258.041 227.912 258.242 227.712C258.442 227.512 258.717 227.406 259 227.42ZM271.498 213.182C271.699 213.382 271.804 213.658 271.79 213.94V217.26C271.804 217.543 271.699 217.819 271.498 218.019C271.298 218.219 271.023 218.325 270.74 218.31H259C258.717 218.325 258.442 218.219 258.242 218.019C258.041 217.819 257.935 217.543 257.95 217.26V213.94C257.935 213.658 258.041 213.382 258.242 213.182C258.442 212.982 258.717 212.876 259 212.89H270.74C271.023 212.876 271.298 212.982 271.498 213.182ZM271.79 207.11C271.79 206.529 271.321 206.056 270.74 206.05H259C258.418 206.056 257.95 206.529 257.95 207.11V210.43C257.95 210.705 258.062 210.967 258.26 211.156C258.459 211.345 258.726 211.444 259 211.43H270.74C271.014 211.444 271.281 211.345 271.48 211.156C271.678 210.967 271.79 210.705 271.79 210.43V207.11ZM270.74 191.49C271.321 191.496 271.79 191.969 271.79 192.55V195.86C271.793 196.141 271.683 196.41 271.486 196.609C271.289 196.808 271.02 196.92 270.74 196.92H259C258.72 196.92 258.451 196.808 258.254 196.609C258.057 196.41 257.947 196.141 257.95 195.86V192.55C257.95 191.969 258.418 191.496 259 191.49H270.74ZM257.95 153.08C257.95 153.355 258.062 153.617 258.26 153.806C258.459 153.995 258.726 154.094 259 154.08H267.54L266.6 148.66H259C258.726 148.647 258.459 148.746 258.26 148.935C258.062 149.124 257.95 149.386 257.95 149.66V153.08ZM270.74 239.71H259C258.418 239.705 257.95 239.232 257.95 238.65V235.34C257.947 235.06 258.057 234.791 258.254 234.592C258.451 234.392 258.72 234.28 259 234.28H270.74C271.02 234.28 271.289 234.392 271.486 234.592C271.683 234.791 271.793 235.06 271.79 235.34V238.65C271.79 239.232 271.321 239.705 270.74 239.71ZM259 147.3H266.36L265.43 141.88H259C258.717 141.866 258.442 141.972 258.242 142.172C258.041 142.372 257.935 142.648 257.95 142.93V146.25C257.935 146.533 258.041 146.809 258.242 147.009C258.442 147.209 258.717 147.315 259 147.3ZM259 168.7C258.418 168.695 257.95 168.222 257.95 167.64V164.33C257.947 164.05 258.057 163.781 258.254 163.582C258.451 163.382 258.72 163.27 259 163.27H269.07L270 168.7H259Z" fill="#62719A"/>
<path fill-rule="evenodd" clip-rule="evenodd" d="M275 212.19C275 211.638 275.448 211.19 276 211.19H277.29L277.65 213.31H276C275.448 213.31 275 212.863 275 212.31V212.19ZM281.36 234.7L281 232.59H276C275.448 232.59 275 233.038 275 233.59V233.7C275 234.253 275.448 234.7 276 234.7H281.36Z" fill="#C22031"/>
<path fill-rule="evenodd" clip-rule="evenodd" d="M356.59 203.54C356.242 203.537 355.907 203.675 355.661 203.921C355.414 204.167 355.277 204.502 355.28 204.85V244.76C355.28 245.484 355.866 246.07 356.59 246.07C357.313 246.07 357.9 245.484 357.9 244.76V204.85C357.9 204.127 357.313 203.54 356.59 203.54ZM351.46 246.07C350.736 246.07 350.15 245.484 350.15 244.76V204.85C350.15 204.127 350.736 203.54 351.46 203.54C351.809 203.537 352.145 203.674 352.393 203.92C352.641 204.166 352.78 204.501 352.78 204.85V244.76C352.774 245.485 352.185 246.07 351.46 246.07ZM360.4 204.85C360.4 204.127 360.986 203.54 361.71 203.54C362.059 203.537 362.395 203.674 362.643 203.92C362.891 204.166 363.03 204.501 363.03 204.85V244.76C363.024 245.485 362.435 246.07 361.71 246.07C360.986 246.07 360.4 245.484 360.4 244.76V204.85ZM366.84 203.54C366.492 203.537 366.157 203.675 365.911 203.921C365.664 204.167 365.527 204.502 365.53 204.85V244.76C365.53 245.484 366.116 246.07 366.84 246.07C367.563 246.07 368.15 245.484 368.15 244.76V204.85C368.15 204.127 367.563 203.54 366.84 203.54ZM370.65 204.85C370.65 204.127 371.236 203.54 371.96 203.54H372C372.712 203.556 373.28 204.138 373.28 204.85V244.76C373.274 245.485 372.685 246.07 371.96 246.07C371.236 246.07 370.65 245.484 370.65 244.76V204.85Z" fill="#203570"/>
<path d="M315.74 99.9002C315.99 91.5102 320.99 77.4502 339.24 77.4502C359.07 77.4502 365.24 98.9602 362.65 107.25C361.32 111.51 349.74 104.45 335.57 105.85C327.85 106.61 320.43 108.47 314.64 108.64C310.46 108.76 307.13 107.87 305.15 105.64C304.918 105.388 304.824 105.038 304.898 104.704C304.971 104.369 305.204 104.092 305.52 103.96C307.12 103.29 310.39 102 315.74 99.9002Z" fill="#FFB600"/>
<path fill-rule="evenodd" clip-rule="evenodd" d="M352.21 81.3496C354.233 83.0288 355.695 85.2863 356.4 87.8196C349.228 82.2528 339.484 81.3368 331.4 85.4696C326.15 88.4696 322.62 93.7896 320.69 99.3796C319.479 99.2882 318.264 99.2648 317.05 99.3096C316.778 99.3204 316.564 99.5472 316.57 99.8196C316.581 100.097 316.812 100.315 317.09 100.31C319.27 100.24 322.64 100.4 323.31 100.99C324.42 101.99 326.12 102.88 330.96 102.69C335.846 102.549 340.731 103.019 345.5 104.09C345.779 104.745 345.65 105.503 345.17 106.03C348.395 106.424 351.325 107.065 353.828 107.613C358.692 108.677 361.943 109.389 362.61 107.25C364.56 101.15 361.72 87.9296 352.21 81.3496ZM324.5 100.63C325.292 97.2335 326.787 94.0414 328.89 91.2596C335.24 82.9896 348.16 82.5096 356.5 88.2596C357.901 94.0148 357.076 100.087 354.19 105.26C353.12 105.02 351.95 104.73 350.68 104.37C347.074 103.352 343.397 102.606 339.68 102.14L338.05 94.5596C337.912 93.7742 337.237 93.1962 336.44 93.1796H332.86C332.063 93.1962 331.388 93.7742 331.25 94.5596L329.7 101.76C326.78 101.71 325.38 101.23 324.5 100.63ZM330.73 101.69H330.97H331C333.546 101.597 336.095 101.681 338.63 101.94L337.08 94.6896C337.03 94.3681 336.764 94.1236 336.44 94.0996H332.86C332.535 94.1236 332.27 94.3681 332.22 94.6896L330.73 101.69Z" fill="#FF9100"/>
<path d="M26.4798 232.43H77.5698V220.63L62.0698 199.71H14.0298L26.4798 232.43Z" fill="#DF7989"/>
<path d="M26.4801 232.43H77.5701V225.46H23.8301L26.4801 232.43Z" fill="#C22031"/>
<path fill-rule="evenodd" clip-rule="evenodd" d="M12.97 198.61H62.57L90.59 226.61H40.97C33.1679 233.909 20.9837 233.706 13.4292 226.151C5.87467 218.597 5.67153 206.413 12.97 198.61ZM61.76 200.61H17.76L41.76 224.61H85.76L61.76 200.61Z" fill="#D93954"/>
<path d="M62.6101 198.57C55.3117 206.372 55.5148 218.557 63.0693 226.111C70.6238 233.666 82.808 233.869 90.6101 226.57L62.6101 198.57Z" fill="#E998A6"/>
<path fill-rule="evenodd" clip-rule="evenodd" d="M12.9302 198.61H62.5702L90.5902 226.61H40.9302L12.9302 198.61ZM61.7602 200.61H17.7602L41.7602 224.61H85.7602L61.7602 200.61Z" fill="#C22031"/>
<path d="M88.2721 213.311L94.0356 214.707L85.2232 251.105C84.8333 252.716 83.2118 253.705 81.6015 253.315C79.9912 252.925 79.0018 251.304 79.3917 249.693L88.2041 213.295L88.2721 213.311Z" fill="#203570"/>
<path d="M78.8001 197.63L74.6201 200.85L76.8701 205.63C77.4801 203.1 78.6201 203.53 81.0901 204.13L81.4801 202.52L81.8801 200.9C79.4001 200.3 78.1901 200.16 78.8001 197.63Z" fill="#203570"/>
<path fill-rule="evenodd" clip-rule="evenodd" d="M75.6398 206.13L72.2498 205.31C71.6755 205.172 71.3219 204.595 71.4598 204.02L73.2498 196.6C73.316 196.322 73.4907 196.082 73.7349 195.934C73.9791 195.786 74.2725 195.741 74.5498 195.81L77.9398 196.63C78.514 196.768 78.8676 197.346 78.7298 197.92L76.9398 205.34C76.8735 205.618 76.6988 205.858 76.4546 206.006C76.2104 206.155 75.917 206.199 75.6398 206.13ZM109.44 220C109.574 220.036 109.717 220.016 109.836 219.944C109.955 219.873 110.039 219.756 110.07 219.62C112.32 209.83 110.07 204.41 98.7498 201.68L83.4498 198C83.0063 197.899 82.563 198.17 82.4498 198.61L80.5398 206.5C80.4388 206.944 80.7092 207.387 81.1498 207.5L84.3798 208.28C86.1598 208.71 87.2559 210.499 86.8298 212.28L85.7098 216.89C85.6151 217.336 85.8885 217.777 86.3298 217.89L93.5498 219.64C93.9963 219.74 94.441 219.465 94.5498 219.02L95.1998 216.34C95.9998 213.01 97.7898 208.11 103.33 209.45C110.33 211.13 109.45 217.55 109.06 219.38C108.997 219.653 109.167 219.926 109.44 219.99V220ZM79.0998 220.16L83.7098 242V241.94C86.515 242.445 88.7754 244.526 89.5098 247.28C90.1654 249.999 89.196 252.853 87.0198 254.61C86.8311 254.752 86.5831 254.788 86.3622 254.705C86.1413 254.621 85.9782 254.431 85.9298 254.2L84.3698 246.84L79.8398 247.84L81.3998 255.19C81.4522 255.421 81.381 255.662 81.2116 255.828C81.0423 255.993 80.7992 256.058 80.5698 256C77.8357 255.256 75.7856 252.988 75.3212 250.193C74.8568 247.398 76.0632 244.588 78.4098 243L73.7998 221.26C70.972 220.745 68.7051 218.627 67.9998 215.84C67.3666 213.14 68.334 210.315 70.4898 208.57C70.6752 208.428 70.921 208.39 71.1403 208.472C71.3597 208.553 71.5219 208.741 71.5698 208.97L73.1298 216.33L77.6698 215.33L76.1098 207.97C76.0573 207.739 76.1285 207.498 76.2979 207.333C76.4673 207.167 76.7104 207.102 76.9398 207.16C79.6738 207.904 81.7239 210.172 82.1884 212.968C82.6528 215.763 81.4463 218.572 79.0998 220.16Z" fill="#132043"/>
<rect x="39.9902" y="226.45" width="90.26" height="38.93" rx="2.57" fill="#C22031"/>
<path d="M111.88 244.12H98.0001C95.2939 244.12 93.1001 241.926 93.1001 239.22V233C93.1001 232.635 93.3956 232.34 93.7601 232.34H96.4401C96.8046 232.34 97.1001 232.635 97.1001 233V239.19C97.1001 239.687 97.503 240.09 98.0001 240.09H111.9C112.397 240.09 112.8 239.687 112.8 239.19V233C112.805 232.638 113.098 232.345 113.46 232.34H116.15C116.511 232.345 116.8 232.639 116.8 233V239.19C116.808 240.498 116.293 241.755 115.369 242.681C114.444 243.607 113.188 244.125 111.88 244.12Z" fill="#E27588"/>
<path fill-rule="evenodd" clip-rule="evenodd" d="M79.61 265.37V226.45H63.5L68.78 245.83L69.78 245.57C70.5993 245.353 71.4413 245.834 71.67 246.65L72.34 249.12L76.76 265.37H79.61ZM66.2 246.56C65.3838 246.789 64.9026 247.631 65.12 248.45L65.79 250.9L69.73 265.37H42.57C41.1506 265.37 40 264.22 40 262.8V229C40.0218 227.6 41.16 226.475 42.56 226.47H61.8L67.2 246.3L66.2 246.56Z" fill="#D93954"/>
<path d="M41.25 246.07L40 244.76L64.07 221.49C64.4083 221.16 64.8096 220.902 65.25 220.73L66.25 220.34C66.3408 220.303 66.445 220.325 66.5132 220.395C66.5815 220.466 66.6 220.571 66.56 220.66L66.14 221.66C65.9549 222.092 65.6864 222.482 65.35 222.81L41.25 246.07Z" fill="#FFF5DE"/>
<path d="M41.295 241.974L44.0752 244.85C44.7085 245.505 44.6908 246.549 44.0357 247.183L26.2698 264.357C24.8244 265.754 22.52 265.715 21.1228 264.27C19.7255 262.825 19.7645 260.52 21.2099 259.123L38.9758 241.949C39.631 241.315 40.6756 241.333 41.3089 241.988L41.295 241.974Z" fill="#FFB600"/>
<path d="M44 247.17C44.3108 246.862 44.4857 246.443 44.4857 246.005C44.4857 245.568 44.3108 245.148 44 244.84L41.31 242C40.666 241.358 39.6239 241.358 38.98 242L36.98 243.91L42.04 249.14L44 247.17Z" fill="#203570"/>
</svg>
