<svg width="1920" height="1080" viewBox="0 0 1920 1080" fill="none" xmlns="http://www.w3.org/2000/svg">
<g clip-path="url(#clip0_486_33763)">
<path fill-rule="evenodd" clip-rule="evenodd" d="M0 1080V0H1920V1080H0Z" fill="white"/>
<path fill-rule="evenodd" clip-rule="evenodd" d="M0 1080V0H1920V1080H0Z" fill="#D04A02"/>
<g clip-path="url(#clip1_486_33763)">
<mask id="mask0_486_33763" style="mask-type:alpha" maskUnits="userSpaceOnUse" x="1084" y="0" width="1921" height="1080">
<path d="M1084 1080V0H3004V1080H1084Z" fill="white"/>
</mask>
<g mask="url(#mask0_486_33763)">
<path fill-rule="evenodd" clip-rule="evenodd" d="M1242.79 336.988C1242.79 367.456 1218.09 392.156 1187.62 392.156C1157.15 392.156 1132.45 367.456 1132.45 336.988C1132.45 306.52 1157.15 281.82 1187.62 281.82C1218.09 281.82 1242.79 306.52 1242.79 336.988Z" fill="#FFB600"/>
<path fill-rule="evenodd" clip-rule="evenodd" d="M1230.9 452.411C1230.9 476.317 1211.52 495.697 1187.62 495.697C1163.72 495.697 1144.34 476.317 1144.34 452.411C1144.34 428.505 1163.72 409.125 1187.62 409.125C1211.52 409.125 1230.9 428.505 1230.9 452.411Z" fill="#EB8C00"/>
<path fill-rule="evenodd" clip-rule="evenodd" d="M1230.9 555.961C1230.9 579.864 1211.52 599.242 1187.62 599.242C1163.72 599.242 1144.34 579.864 1144.34 555.961C1144.34 532.057 1163.72 512.68 1187.62 512.68C1211.52 512.68 1230.9 532.057 1230.9 555.961Z" fill="#EB8C00"/>
<path fill-rule="evenodd" clip-rule="evenodd" d="M1230.9 662.899C1230.9 686.806 1211.52 706.185 1187.62 706.185C1163.72 706.185 1144.34 686.806 1144.34 662.899C1144.34 638.993 1163.72 619.613 1187.62 619.613C1211.52 619.613 1230.9 638.993 1230.9 662.899Z" fill="#EB8C00"/>
<path fill-rule="evenodd" clip-rule="evenodd" d="M1230.9 214.764C1230.9 238.671 1211.52 258.05 1187.62 258.05C1163.72 258.05 1144.34 238.671 1144.34 214.764C1144.34 190.857 1163.72 171.479 1187.62 171.479C1211.52 171.479 1230.9 190.857 1230.9 214.764Z" fill="#EB8C00"/>
<path fill-rule="evenodd" clip-rule="evenodd" d="M1214.78 59.4484C1214.78 74.4482 1202.62 86.6077 1187.62 86.6077C1172.62 86.6077 1160.46 74.4482 1160.46 59.4484C1160.46 44.4485 1172.62 32.2891 1187.62 32.2891C1202.62 32.2891 1214.78 44.4485 1214.78 59.4484Z" fill="#DB536A"/>
<path fill-rule="evenodd" clip-rule="evenodd" d="M1214.78 135.833C1214.78 150.833 1202.62 162.992 1187.62 162.992C1172.62 162.992 1160.46 150.833 1160.46 135.833C1160.46 120.833 1172.62 108.674 1187.62 108.674C1202.62 108.674 1214.78 120.833 1214.78 135.833Z" fill="#DB536A"/>
<path fill-rule="evenodd" clip-rule="evenodd" d="M1214.78 746.925C1214.78 761.925 1202.62 774.084 1187.62 774.084C1172.62 774.084 1160.46 761.925 1160.46 746.925C1160.46 731.925 1172.62 719.766 1187.62 719.766C1202.62 719.766 1214.78 731.925 1214.78 746.925Z" fill="#DB536A"/>
<path fill-rule="evenodd" clip-rule="evenodd" d="M1230.9 1014.28C1230.9 1038.18 1211.52 1057.56 1187.62 1057.56C1163.72 1057.56 1144.34 1038.18 1144.34 1014.28C1144.34 990.372 1163.72 970.992 1187.62 970.992C1211.52 970.992 1230.9 990.372 1230.9 1014.28Z" fill="#EB8C00"/>
<path fill-rule="evenodd" clip-rule="evenodd" d="M1214.78 858.962C1214.78 873.962 1202.62 886.121 1187.62 886.121C1172.62 886.121 1160.46 873.962 1160.46 858.962C1160.46 843.962 1172.62 831.803 1187.62 831.803C1202.62 831.803 1214.78 843.962 1214.78 858.962Z" fill="#DB536A"/>
<path fill-rule="evenodd" clip-rule="evenodd" d="M1214.78 935.347C1214.78 950.347 1202.62 962.506 1187.62 962.506C1172.62 962.506 1160.46 950.347 1160.46 935.347C1160.46 920.347 1172.62 908.188 1187.62 908.188C1202.62 908.188 1214.78 920.347 1214.78 935.347Z" fill="#DB536A"/>
<path fill-rule="evenodd" clip-rule="evenodd" d="M1411.53 509.277C1411.53 539.745 1386.83 564.445 1356.36 564.445C1325.89 564.445 1301.2 539.745 1301.2 509.277C1301.2 478.809 1325.89 454.109 1356.36 454.109C1386.83 454.109 1411.53 478.809 1411.53 509.277Z" fill="#FFB600"/>
<path fill-rule="evenodd" clip-rule="evenodd" d="M1411.53 339.531C1411.53 370 1386.83 394.7 1356.36 394.7C1325.89 394.7 1301.2 370 1301.2 339.531C1301.2 309.063 1325.89 284.363 1356.36 284.363C1386.83 284.363 1411.53 309.063 1411.53 339.531Z" fill="#FFB600"/>
<path fill-rule="evenodd" clip-rule="evenodd" d="M1399.64 799.551C1399.64 823.454 1380.27 842.832 1356.36 842.832C1332.46 842.832 1313.08 823.454 1313.08 799.551C1313.08 775.647 1332.46 756.27 1356.36 756.27C1380.27 756.27 1399.64 775.647 1399.64 799.551Z" fill="#EB8C00"/>
<path fill-rule="evenodd" clip-rule="evenodd" d="M1399.64 706.19C1399.64 730.097 1380.27 749.476 1356.36 749.476C1332.46 749.476 1313.08 730.097 1313.08 706.19C1313.08 682.284 1332.46 662.904 1356.36 662.904C1380.27 662.904 1399.64 682.284 1399.64 706.19Z" fill="#EB8C00"/>
<path fill-rule="evenodd" clip-rule="evenodd" d="M1383.52 622.163C1383.52 637.163 1371.36 649.323 1356.36 649.323C1341.36 649.323 1329.2 637.163 1329.2 622.163C1329.2 607.163 1341.36 595.004 1356.36 595.004C1371.36 595.004 1383.52 607.163 1383.52 622.163Z" fill="#DB536A"/>
<path fill-rule="evenodd" clip-rule="evenodd" d="M1383.52 883.571C1383.52 898.571 1371.36 910.731 1356.36 910.731C1341.36 910.731 1329.2 898.571 1329.2 883.571C1329.2 868.572 1341.36 856.412 1356.36 856.412C1371.36 856.412 1383.52 868.572 1383.52 883.571Z" fill="#DB536A"/>
<path fill-rule="evenodd" clip-rule="evenodd" d="M1383.52 990.515C1383.52 1005.51 1371.36 1017.67 1356.36 1017.67C1341.36 1017.67 1329.2 1005.51 1329.2 990.515C1329.2 975.515 1341.36 963.355 1356.36 963.355C1371.36 963.355 1383.52 975.515 1383.52 990.515Z" fill="#DB536A"/>
<path fill-rule="evenodd" clip-rule="evenodd" d="M1383.52 73.0237C1383.52 88.0264 1371.36 100.188 1356.36 100.188C1341.36 100.188 1329.2 88.0264 1329.2 73.0237C1329.2 58.0211 1341.36 45.8594 1356.36 45.8594C1371.36 45.8594 1383.52 58.0211 1383.52 73.0237Z" fill="#DB536A"/>
<path fill-rule="evenodd" clip-rule="evenodd" d="M1586.51 141.775C1586.51 172.243 1561.81 196.943 1531.34 196.943C1500.87 196.943 1476.16 172.243 1476.16 141.775C1476.16 111.307 1500.87 86.6074 1531.34 86.6074C1561.81 86.6074 1586.51 111.307 1586.51 141.775Z" fill="#FFB600"/>
<path fill-rule="evenodd" clip-rule="evenodd" d="M1586.51 263.994C1586.51 294.462 1561.81 319.161 1531.34 319.161C1500.87 319.161 1476.16 294.462 1476.16 263.994C1476.16 233.526 1500.87 208.826 1531.34 208.826C1561.81 208.826 1586.51 233.526 1586.51 263.994Z" fill="#FFB600"/>
<path fill-rule="evenodd" clip-rule="evenodd" d="M1586.51 701.947C1586.51 732.415 1561.81 757.115 1531.34 757.115C1500.87 757.115 1476.16 732.415 1476.16 701.947C1476.16 671.479 1500.87 646.779 1531.34 646.779C1561.81 646.779 1586.51 671.479 1586.51 701.947Z" fill="#FFB600"/>
<path fill-rule="evenodd" clip-rule="evenodd" d="M1574.62 381.124C1574.62 405.03 1555.24 424.41 1531.34 424.41C1507.43 424.41 1488.05 405.03 1488.05 381.124C1488.05 357.218 1507.43 337.838 1531.34 337.838C1555.24 337.838 1574.62 357.218 1574.62 381.124Z" fill="#EB8C00"/>
<path fill-rule="evenodd" clip-rule="evenodd" d="M1574.62 822.466C1574.62 846.373 1555.24 865.752 1531.34 865.752C1507.43 865.752 1488.05 846.373 1488.05 822.466C1488.05 798.56 1507.43 779.18 1531.34 779.18C1555.24 779.18 1574.62 798.56 1574.62 822.466Z" fill="#EB8C00"/>
<path fill-rule="evenodd" clip-rule="evenodd" d="M1558.49 461.749C1558.49 476.749 1546.33 488.908 1531.33 488.908C1516.33 488.908 1504.17 476.749 1504.17 461.749C1504.17 446.749 1516.33 434.59 1531.33 434.59C1546.33 434.59 1558.49 446.749 1558.49 461.749Z" fill="#DB536A"/>
<path fill-rule="evenodd" clip-rule="evenodd" d="M1558.49 526.259C1558.49 541.259 1546.33 553.418 1531.33 553.418C1516.33 553.418 1504.17 541.259 1504.17 526.259C1504.17 511.259 1516.33 499.1 1531.33 499.1C1546.33 499.1 1558.49 511.259 1558.49 526.259Z" fill="#DB536A"/>
<path fill-rule="evenodd" clip-rule="evenodd" d="M1558.49 32.2853C1558.49 47.2879 1546.33 59.4497 1531.33 59.4497C1516.33 59.4497 1504.17 47.2879 1504.17 32.2853C1504.17 17.2827 1516.33 5.12109 1531.33 5.12109C1546.33 5.12109 1558.49 17.2826 1558.49 32.2853Z" fill="#DB536A"/>
<path fill-rule="evenodd" clip-rule="evenodd" d="M1586.51 1060.11C1586.51 1090.58 1561.81 1115.28 1531.34 1115.28C1500.87 1115.28 1476.16 1090.58 1476.16 1060.11C1476.16 1029.64 1500.87 1004.94 1531.34 1004.94C1561.81 1004.94 1586.51 1029.64 1586.51 1060.11Z" fill="#FFB600"/>
<path fill-rule="evenodd" clip-rule="evenodd" d="M1558.49 950.622C1558.49 965.622 1546.33 977.782 1531.33 977.782C1516.33 977.782 1504.17 965.622 1504.17 950.622C1504.17 935.622 1516.33 923.463 1531.33 923.463C1546.33 923.463 1558.49 935.622 1558.49 950.622Z" fill="#DB536A"/>
<path fill-rule="evenodd" clip-rule="evenodd" d="M1756.53 72.1739C1756.53 102.642 1731.84 127.341 1701.37 127.341C1670.9 127.341 1646.2 102.642 1646.2 72.1739C1646.2 41.7062 1670.9 17.0078 1701.37 17.0078C1731.84 17.0078 1756.53 41.7062 1756.53 72.1739Z" fill="#FFB600"/>
<path fill-rule="evenodd" clip-rule="evenodd" d="M1728.53 195.247C1728.53 210.247 1716.37 222.406 1701.37 222.406C1686.37 222.406 1674.21 210.247 1674.21 195.247C1674.21 180.247 1686.37 168.088 1701.37 168.088C1716.37 168.088 1728.53 180.247 1728.53 195.247Z" fill="#DB536A"/>
<path fill-rule="evenodd" clip-rule="evenodd" d="M1756.53 595.004C1756.53 625.472 1731.84 650.172 1701.37 650.172C1670.9 650.172 1646.2 625.472 1646.2 595.004C1646.2 564.536 1670.9 539.836 1701.37 539.836C1731.84 539.836 1756.53 564.536 1756.53 595.004Z" fill="#FFB600"/>
<path fill-rule="evenodd" clip-rule="evenodd" d="M1756.53 768.148C1756.53 798.618 1731.84 823.32 1701.37 823.32C1670.9 823.32 1646.2 798.618 1646.2 768.148C1646.2 737.677 1670.9 712.977 1701.37 712.977C1731.84 712.977 1756.53 737.677 1756.53 768.148Z" fill="#FFB600"/>
<path fill-rule="evenodd" clip-rule="evenodd" d="M1756.53 1007.49C1756.53 1037.96 1731.84 1062.66 1701.37 1062.66C1670.9 1062.66 1646.2 1037.96 1646.2 1007.49C1646.2 977.027 1670.9 952.328 1701.37 952.328C1731.84 952.328 1756.53 977.027 1756.53 1007.49Z" fill="#FFB600"/>
<path fill-rule="evenodd" clip-rule="evenodd" d="M1744.66 392.997C1744.66 416.903 1725.28 436.283 1701.37 436.283C1677.47 436.283 1658.08 416.903 1658.08 392.997C1658.08 369.091 1677.47 349.711 1701.37 349.711C1725.28 349.711 1744.66 369.091 1744.66 392.997Z" fill="#EB8C00"/>
<path fill-rule="evenodd" clip-rule="evenodd" d="M1744.66 888.671C1744.66 912.577 1725.28 931.957 1701.37 931.957C1677.47 931.957 1658.08 912.577 1658.08 888.671C1658.08 864.764 1677.47 845.385 1701.37 845.385C1725.28 845.385 1744.66 864.764 1744.66 888.671Z" fill="#EB8C00"/>
<path fill-rule="evenodd" clip-rule="evenodd" d="M1728.53 478.727C1728.53 493.727 1716.37 505.887 1701.37 505.887C1686.37 505.887 1674.21 493.727 1674.21 478.727C1674.21 463.728 1686.37 451.568 1701.37 451.568C1716.37 451.568 1728.53 463.728 1728.53 478.727Z" fill="#DB536A"/>
<path fill-rule="evenodd" clip-rule="evenodd" d="M1925.28 336.988C1925.28 367.456 1900.58 392.156 1870.11 392.156C1839.64 392.156 1814.94 367.456 1814.94 336.988C1814.94 306.52 1839.64 281.82 1870.11 281.82C1900.58 281.82 1925.28 306.52 1925.28 336.988Z" fill="#FFB600"/>
<path fill-rule="evenodd" clip-rule="evenodd" d="M1913.39 452.411C1913.39 476.317 1894.01 495.697 1870.11 495.697C1846.21 495.697 1826.83 476.317 1826.83 452.411C1826.83 428.505 1846.21 409.125 1870.11 409.125C1894.01 409.125 1913.39 428.505 1913.39 452.411Z" fill="#EB8C00"/>
<path fill-rule="evenodd" clip-rule="evenodd" d="M1913.39 555.961C1913.39 579.864 1894.01 599.242 1870.11 599.242C1846.21 599.242 1826.83 579.864 1826.83 555.961C1826.83 532.057 1846.21 512.68 1870.11 512.68C1894.01 512.68 1913.39 532.057 1913.39 555.961Z" fill="#EB8C00"/>
<path fill-rule="evenodd" clip-rule="evenodd" d="M1913.39 662.899C1913.39 686.806 1894.01 706.185 1870.11 706.185C1846.21 706.185 1826.83 686.806 1826.83 662.899C1826.83 638.993 1846.21 619.613 1870.11 619.613C1894.01 619.613 1913.39 638.993 1913.39 662.899Z" fill="#EB8C00"/>
<path fill-rule="evenodd" clip-rule="evenodd" d="M1913.39 214.764C1913.39 238.671 1894.01 258.05 1870.11 258.05C1846.21 258.05 1826.83 238.671 1826.83 214.764C1826.83 190.857 1846.21 171.479 1870.11 171.479C1894.01 171.479 1913.39 190.857 1913.39 214.764Z" fill="#EB8C00"/>
<path fill-rule="evenodd" clip-rule="evenodd" d="M1897.27 59.4484C1897.27 74.4482 1885.11 86.6077 1870.11 86.6077C1855.11 86.6077 1842.95 74.4482 1842.95 59.4484C1842.95 44.4485 1855.11 32.2891 1870.11 32.2891C1885.11 32.2891 1897.27 44.4485 1897.27 59.4484Z" fill="#DB536A"/>
<path fill-rule="evenodd" clip-rule="evenodd" d="M1897.27 135.833C1897.27 150.833 1885.11 162.992 1870.11 162.992C1855.11 162.992 1842.95 150.833 1842.95 135.833C1842.95 120.833 1855.11 108.674 1870.11 108.674C1885.11 108.674 1897.27 120.833 1897.27 135.833Z" fill="#DB536A"/>
<path fill-rule="evenodd" clip-rule="evenodd" d="M1897.27 746.925C1897.27 761.925 1885.11 774.084 1870.11 774.084C1855.11 774.084 1842.95 761.925 1842.95 746.925C1842.95 731.925 1855.11 719.766 1870.11 719.766C1885.11 719.766 1897.27 731.925 1897.27 746.925Z" fill="#DB536A"/>
<path fill-rule="evenodd" clip-rule="evenodd" d="M1913.39 1014.28C1913.39 1038.18 1894.01 1057.56 1870.11 1057.56C1846.21 1057.56 1826.83 1038.18 1826.83 1014.28C1826.83 990.372 1846.21 970.992 1870.11 970.992C1894.01 970.992 1913.39 990.372 1913.39 1014.28Z" fill="#EB8C00"/>
<path fill-rule="evenodd" clip-rule="evenodd" d="M1897.27 858.962C1897.27 873.962 1885.11 886.121 1870.11 886.121C1855.11 886.121 1842.95 873.962 1842.95 858.962C1842.95 843.962 1855.11 831.803 1870.11 831.803C1885.11 831.803 1897.27 843.962 1897.27 858.962Z" fill="#DB536A"/>
<path fill-rule="evenodd" clip-rule="evenodd" d="M1897.27 935.347C1897.27 950.347 1885.11 962.506 1870.11 962.506C1855.11 962.506 1842.95 950.347 1842.95 935.347C1842.95 920.347 1855.11 908.188 1870.11 908.188C1885.11 908.188 1897.27 920.347 1897.27 935.347Z" fill="#DB536A"/>
</g>
</g>
</g>
<defs>
<clipPath id="clip0_486_33763">
<rect width="1920" height="1080" fill="white"/>
</clipPath>
<clipPath id="clip1_486_33763">
<rect width="1068" height="1080" fill="white" transform="translate(1132)"/>
</clipPath>
</defs>
</svg>
