<?xml version="1.0" encoding="utf-8"?>
<!-- Generator: Adobe Illustrator 25.0.1, SVG Export Plug-In . SVG Version: 6.00 Build 0)  -->
<svg version="1.1" id="Layer_1" xmlns="http://www.w3.org/2000/svg" xmlns:xlink="http://www.w3.org/1999/xlink" x="0px" y="0px"
	 viewBox="0 0 119.06 68.03" style="enable-background:new 0 0 119.06 68.03;" xml:space="preserve">
<style type="text/css">
	.st0{fill:#231F20;}
</style>
<g>
	<path class="st0" d="M108.43,23.51c-5.14,0.85-7.8,4.63-7.8,11.36c0,6.72,3.5,11.24,8.87,11.24c2.49,0,4.8-0.85,9.55-3.16v5.42
		c-5.76,2.66-9.1,3.45-13.73,3.45c-5.03,0-8.53-1.36-11.41-4.24c-2.94-2.94-4.41-6.84-4.41-11.19c0-9.66,7.12-16.16,17.57-16.16
		c6.95,0,11.7,3.16,11.7,7.8c0,2.99-2.2,5.09-5.54,5.09c-1.7,0-3.11-0.45-4.86-1.47L108.43,23.51L108.43,23.51z"/>
	<path class="st0" d="M83.01,36.39c4.63-5.82,6.27-8.19,6.27-11.02s-2.26-5.14-5.31-5.14c-1.86,0-3.56,0.85-4.35,1.81V33.9
		l-7.57,10.11v-23h-7.23L52.83,40.85V21.02h-4.12l-10.85,2.66v2.77l5.93,0.62v24.35h7.68l11.47-18.87v18.87h8.42L83.01,36.39z"/>
	<path class="st0" d="M25.37,20.45c-2.83,0-4.75,0.57-10.34,3.9v-4.07h-3.11L0,23.9v2.94h4.97v34.02l-4.46,1.13v2.83H20v-2.83
		l-4.97-1.13l-0.06-9.83c1.98,0.23,3.96,0.28,5.09,0.28c10.28,0,16.78-6.55,16.78-16.33C36.84,26.56,31.98,20.45,25.37,20.45z
		 M16.73,47.63c-0.51,0-0.9,0-1.7-0.06l0.06-20.4c1.75-0.23,2.6-0.34,3.45-0.34c4.97,0,7.68,3.33,7.68,9.55
		C26.22,43.79,22.88,47.63,16.73,47.63z"/>
</g>
</svg>
