<svg width="1920" height="1080" viewBox="0 0 1920 1080" fill="none" xmlns="http://www.w3.org/2000/svg">
<g clip-path="url(#clip0_486_34905)">
<path fill-rule="evenodd" clip-rule="evenodd" d="M0 1080V0H1920V1080H0Z" fill="#FFB600"/>
<g clip-path="url(#clip1_486_34905)">
<path fill-rule="evenodd" clip-rule="evenodd" d="M1300.58 221.896H1132.26V713.993H1300.58V221.896Z" fill="#DB536A"/>
<path fill-rule="evenodd" clip-rule="evenodd" d="M1300.58 986.17H1132.26V1075.84H1300.58V986.17Z" fill="#EB8C00"/>
<path fill-rule="evenodd" clip-rule="evenodd" d="M1300.58 930.945H1132.26V987.165H1300.58V930.945Z" fill="#D04A02"/>
<path fill-rule="evenodd" clip-rule="evenodd" d="M1300.58 774.141H1132.26V929.967H1300.58V774.141Z" fill="#FFB600"/>
<path fill-rule="evenodd" clip-rule="evenodd" d="M1300.58 0H1132.26V222.876H1300.58V0Z" fill="#EB8C00"/>
<path fill-rule="evenodd" clip-rule="evenodd" d="M1300.58 658.76H1132.26V755.412H1300.58V658.76Z" fill="#DB536A"/>
<path fill-rule="evenodd" clip-rule="evenodd" d="M1300.58 684.4H1132.26V711.028H1300.58V684.4Z" fill="#EB8C00"/>
<path fill-rule="evenodd" clip-rule="evenodd" d="M1300.58 60.1562H1132.26V101.576H1300.58V60.1562Z" fill="#DB536A"/>
<path fill-rule="evenodd" clip-rule="evenodd" d="M1300.58 294.857H1132.26V326.419H1300.58V294.857Z" fill="#EB8C00"/>
<path fill-rule="evenodd" clip-rule="evenodd" d="M1300.58 886.561H1132.26V918.123H1300.58V886.561Z" fill="#EB8C00"/>
<path fill-rule="evenodd" clip-rule="evenodd" d="M1300.58 769.912H1132.26V788.161H1300.58V769.912Z" fill="#EB8C00"/>
<path fill-rule="evenodd" clip-rule="evenodd" d="M1701.32 417.148H1533V773.16H1701.32V417.148Z" fill="#D04A02"/>
<path fill-rule="evenodd" clip-rule="evenodd" d="M1701.32 986.17H1533V1078.96H1701.32V986.17Z" fill="#EB8C00"/>
<path fill-rule="evenodd" clip-rule="evenodd" d="M1701.32 930.945H1533V987.165H1701.32V930.945Z" fill="#D04A02"/>
<path fill-rule="evenodd" clip-rule="evenodd" d="M1701.32 774.141H1533V929.967H1701.32V774.141Z" fill="#FFB600"/>
<path fill-rule="evenodd" clip-rule="evenodd" d="M1701.32 0H1533V222.876H1701.32V0Z" fill="#EB8C00"/>
<path fill-rule="evenodd" clip-rule="evenodd" d="M1701.32 365.869H1533V462.519H1701.32V365.869Z" fill="#DB536A"/>
<path fill-rule="evenodd" clip-rule="evenodd" d="M1701.32 391.51H1533V418.136H1701.32V391.51Z" fill="#EB8C00"/>
<path fill-rule="evenodd" clip-rule="evenodd" d="M1701.32 792.51H1533V819.136H1701.32V792.51Z" fill="#EB8C00"/>
<path fill-rule="evenodd" clip-rule="evenodd" d="M1701.32 281.547H1533V308.173H1701.32V281.547Z" fill="#EB8C00"/>
<path fill-rule="evenodd" clip-rule="evenodd" d="M1701.32 294.857H1533V326.419H1701.32V294.857Z" fill="#FFB600"/>
</g>
</g>
<defs>
<clipPath id="clip0_486_34905">
<rect width="1920" height="1080" fill="white"/>
</clipPath>
<clipPath id="clip1_486_34905">
<rect width="1068" height="1080" fill="white" transform="translate(1132)"/>
</clipPath>
</defs>
</svg>
