<svg width="250" height="250" viewBox="0 0 250 250" fill="none" xmlns="http://www.w3.org/2000/svg">
<path fill-rule="evenodd" clip-rule="evenodd" d="M222.593 162.128C224.143 163.598 225.558 165.207 226.819 166.935C233.436 176.111 235.036 187.69 231.658 201.375C228.143 215.397 216.292 227.91 198.516 236.63C180.643 245.031 161.124 249.293 141.396 249.103C123.575 249.259 105.913 245.723 89.5105 238.715C64.486 227.573 51.1344 210.333 53.8205 192.616C56.5659 174.383 75.6651 160.579 102.507 157.58C128.34 154.566 150.019 160.54 167.445 165.343L167.527 165.366L168.159 165.54C178.122 168.287 186.758 170.669 193.954 170.669H194.131C199.837 170.954 205.381 168.711 209.3 164.531C200.057 159.268 188.483 157.6 181.096 157.103L181.024 157.098C155.32 155.391 123.353 153.268 111.513 129.734L120.322 125.245C129.625 143.637 157.316 145.484 181.748 147.093C190.181 147.649 203.395 149.615 214.396 155.971C215.844 151.102 215.973 145.932 214.771 140.995C209.756 117.126 183.87 91.0742 182.045 89.2372C181.987 89.1787 181.953 89.1448 181.945 89.1362L188.818 82.0059C188.86 82.0492 188.938 82.1281 189.05 82.2414C192.014 85.2453 218.793 112.383 224.37 138.93C226.281 146.653 225.657 154.79 222.593 162.128ZM194.131 227.692C209.28 220.283 219.195 210.074 222 198.912C224.706 188.227 223.639 179.428 218.781 172.834C218.232 172.076 217.646 171.346 217.023 170.649L216.904 170.788C211.093 177.298 202.707 180.878 194.013 180.56H193.815C185.183 180.501 175.806 177.921 164.964 174.939L164.821 174.899C147.361 170.073 127.551 164.611 103.593 167.392C81.3534 169.974 65.5526 180.5 63.5775 194.165C61.6024 207.194 72.8012 220.482 93.5002 229.678C123.304 242.886 164.683 242.092 194.131 227.692Z" fill="#9AA4BE"/>
<path fill-rule="evenodd" clip-rule="evenodd" d="M207.583 104.33L197.431 107.23C192.66 100.854 187.467 94.8094 181.887 89.1362L188.76 82.0059C195.621 88.927 201.915 96.3927 207.583 104.33ZM120.264 125.146L111.455 129.634C114.106 134.883 117.966 139.418 122.713 142.862L135.887 139.128C129.215 136.446 123.687 131.499 120.264 125.146ZM206.28 172.635C204.337 171.559 202.325 170.617 200.255 169.815C203.642 168.901 206.698 167.033 209.064 164.432C212.003 166.055 214.669 168.133 216.965 170.589L216.846 170.728C215.088 172.669 213.098 174.384 210.921 175.833C209.463 174.641 207.911 173.572 206.28 172.635Z" fill="#62719A"/>
<path d="M141.871 109.654C147.461 107.131 147.006 93.9232 140.864 80.159C134.721 66.3948 125.221 57.2783 119.632 59.8007C119.242 59.967 118.882 60.195 118.565 60.476L82.0851 83.8732C77.8386 85.8593 78.1349 95.7902 82.8553 106.317C87.5758 116.844 94.7059 123.756 99.0116 121.829L140.647 110.071C141.073 109.994 141.486 109.854 141.871 109.654Z" fill="#E27588"/>
<path d="M237.445 87.6072L202.466 52.4718L199.444 2.81738L115.147 56.9407C108.649 59.8802 109.222 75.2333 116.313 91.2419C123.403 107.25 134.503 117.837 141.001 114.917L237.445 87.6072Z" fill="#D93954"/>
<path d="M194.568 55.9077C186.667 38.1314 184.356 21.8448 187.497 10.5435L182.954 13.4631C181.097 24.7049 183.349 39.2834 189.867 54.7954C182.531 43.3733 172.306 34.119 160.24 27.9821L133.182 45.381C137.29 64.6667 143.215 91.9767 147.679 113.01L218.605 92.93L222.891 91.7184L223.898 91.4404C213.193 86.2366 202.468 73.4258 194.568 55.9077Z" fill="#C22031"/>
<path d="M200.019 53.4846C189.195 29.1937 189.63 7.00808 201.046 1.84402C212.462 -3.32003 229.231 11.1393 239.995 35.4104C250.759 59.6815 250.384 81.867 238.968 87.0509C227.552 92.2349 210.842 77.7556 200.019 53.4846Z" fill="#E27588"/>
<ellipse cx="15.6575" cy="38.476" rx="15.6575" ry="38.476" transform="matrix(0.911548 -0.411195 0.407383 0.913257 190.105 15.7407)" fill="#132043"/>
<path fill-rule="evenodd" clip-rule="evenodd" d="M213.251 64.3888L230.118 29.7698C226.747 23.5687 222.329 18.0041 217.063 13.3242L202.645 42.9182C203.533 45.5003 204.58 48.1617 205.765 50.8629C207.864 55.5824 210.368 60.1082 213.251 64.3888ZM233.106 35.4293C233.527 36.2907 233.933 37.122 234.325 38.0124H234.305C235.51 40.7136 236.537 43.3751 237.446 46.0167L223.028 75.6305C220.62 73.572 218.423 71.2764 216.47 68.7782L232.903 35.0133C232.971 35.1529 233.039 35.2915 233.106 35.4293Z" fill="#415385"/>
<path d="M70.5316 143.836C76.7136 141.055 76.2198 126.417 69.4255 111.163C62.6312 95.9091 52.0842 85.7796 45.9021 88.5801C45.4713 88.7699 45.0718 89.0243 44.717 89.3348L4.30656 115.235C-0.394171 117.36 -0.0189023 128.502 5.15585 140.121C10.3306 151.74 18.3495 159.427 23.07 157.302L69.1687 144.173C69.6374 144.13 70.0968 144.017 70.5316 143.836Z" fill="#D93954"/>
<path d="M72.2886 126.755L74.1452 126.079C73.9082 124.808 73.6514 123.517 73.2959 122.107L70.5505 123.1L66.8571 115.354L70.5307 113.745C70.1752 112.851 69.8197 111.958 69.4247 111.064L68.9507 110.071L65.1387 111.759L61.307 103.814L64.566 102.126C63.8352 100.974 63.0846 99.8617 62.3341 98.8289L59.5887 100.299L55.6385 91.9766L55.9348 91.7979L55.3225 91.3212C54.4009 90.5646 53.4088 89.8994 52.3599 89.335C50.4397 88.1088 48.0657 87.8378 45.921 88.6001C45.4903 88.7899 45.0907 89.0444 44.736 89.3549L35.9073 95.0155C35.9073 95.0155 35.4728 97.0016 35.058 100.477L1.00733 122.365C0.964582 123.892 1.04384 125.419 1.24434 126.933L34.584 105.463C34.426 107.926 34.3272 110.706 34.3865 113.705L2.03438 130.985C2.33065 132.256 2.70592 133.567 3.14044 134.957L34.584 118.015C34.7222 120.24 34.9593 122.544 35.3148 124.888L4.4835 138.513C4.70076 139.049 4.91802 139.585 5.15504 140.122C5.39205 140.658 5.78707 141.472 6.10308 142.108L36.0258 128.939C36.4406 130.926 36.9541 132.912 37.5664 134.898L7.93992 145.504C8.65096 146.716 9.40149 147.868 10.152 148.92L38.8304 138.652C39.5315 140.497 40.336 142.301 41.2401 144.054L12.8579 152.277C13.8755 153.434 14.9998 154.491 16.2156 155.435L43.2744 147.669C43.7879 148.523 44.341 149.357 44.9137 150.172L45.5063 150.906L69.2074 144.173C69.6626 144.127 70.1085 144.013 70.5307 143.836C72.392 142.776 73.6932 140.945 74.0859 138.83C74.463 137.423 74.6816 135.977 74.7377 134.52C74.7377 133.746 74.7377 132.951 74.7377 132.097L72.2886 126.755Z" fill="#C22031"/>
<path d="M176.653 119.286L137.704 80.278L134.485 25.2808L40.9638 85.3824C33.7745 88.6398 34.3473 105.641 42.2674 123.378C50.1875 141.115 62.4134 152.833 69.6027 149.595L176.653 119.286Z" fill="#D93954"/>
<path d="M125.931 85.6409C134.128 104.112 145.327 118.016 156.842 124.888L162.313 123.339C150.462 117.877 138.295 103.656 129.526 84.0122C122.751 68.818 119.512 53.9217 120.401 42.0642C120.622 39.097 121.151 36.1613 121.981 33.3052L117.182 36.4036C116.847 38.1767 116.61 39.967 116.471 41.7663C115.562 54.4579 118.781 69.6323 125.931 85.6409Z" fill="#C22031"/>
<path d="M134.939 81.5691C122.95 54.6961 123.444 30.1271 136.085 24.4268C148.725 18.7265 167.291 34.6953 179.28 61.5683C191.269 88.4412 190.795 113.03 178.154 118.73C165.514 124.431 146.928 108.462 134.939 81.5691Z" fill="#E27588"/>
<ellipse cx="17.3379" cy="42.6233" rx="17.3379" ry="42.6233" transform="matrix(0.911548 -0.411195 0.407383 0.913257 123.941 39.7817)" fill="#132043"/>
<path fill-rule="evenodd" clip-rule="evenodd" d="M149.396 93.4266L168.1 55.014C164.629 48.8081 160.247 43.1636 155.104 38.2705L138.592 72.1745C139.382 74.3196 140.251 76.5044 141.238 78.709C143.532 83.8414 146.261 88.7655 149.396 93.4266ZM170.865 60.1582C171.523 61.5352 172.182 62.9454 172.84 64.3887C173.887 66.653 174.815 68.8179 175.506 70.9828L159.014 104.887C156.681 102.715 154.534 100.35 152.595 97.816L170.865 60.1582Z" fill="#415385"/>
</svg>
