<svg width="1920" height="1080" viewBox="0 0 1920 1080" fill="none" xmlns="http://www.w3.org/2000/svg">
<path fill-rule="evenodd" clip-rule="evenodd" d="M0 1080V0H1920V1080H0Z" fill="white"/>
<path fill-rule="evenodd" clip-rule="evenodd" d="M1.41064 1079.59V2.03906H1919.56V1079.59H1.41064Z" fill="#EB8C00"/>
<path fill-rule="evenodd" clip-rule="evenodd" d="M979.331 183.065V2.03906H997.309V183.065H979.331Z" fill="#FFB600"/>
<path fill-rule="evenodd" clip-rule="evenodd" d="M1016.57 183.065V2.03906H1034.53V183.065H1016.57Z" fill="#FFB600"/>
<path fill-rule="evenodd" clip-rule="evenodd" d="M1053.79 183.065V2.03906H1071.77V183.065H1053.79Z" fill="#FFB600"/>
<path fill-rule="evenodd" clip-rule="evenodd" d="M1091.03 183.065V2.03906H1109.01V183.065H1091.03Z" fill="#FFB600"/>
<path fill-rule="evenodd" clip-rule="evenodd" d="M1257.29 183.065V2.03906H1275.26V183.065H1257.29Z" fill="#D04A02"/>
<path fill-rule="evenodd" clip-rule="evenodd" d="M1146.23 183.065V2.03906H1164.21V183.065H1146.23Z" fill="#D04A02"/>
<path fill-rule="evenodd" clip-rule="evenodd" d="M1183.47 183.065V2.03906H1201.45V183.065H1183.47Z" fill="#D04A02"/>
<path fill-rule="evenodd" clip-rule="evenodd" d="M1220.7 183.065V2.03906H1238.67V183.065H1220.7Z" fill="#D04A02"/>
<path fill-rule="evenodd" clip-rule="evenodd" d="M979.331 542.921V361.895H997.309V542.921H979.331Z" fill="#D04A02"/>
<path fill-rule="evenodd" clip-rule="evenodd" d="M1016.57 542.921V361.895H1034.53V542.921H1016.57Z" fill="#D04A02"/>
<path fill-rule="evenodd" clip-rule="evenodd" d="M1053.79 542.921V361.895H1071.77V542.921H1053.79Z" fill="#D04A02"/>
<path fill-rule="evenodd" clip-rule="evenodd" d="M1091.03 542.921V361.895H1109.01V542.921H1091.03Z" fill="#D04A02"/>
<path fill-rule="evenodd" clip-rule="evenodd" d="M1257.29 542.921V361.895H1275.26V542.921H1257.29Z" fill="#FFB600"/>
<path fill-rule="evenodd" clip-rule="evenodd" d="M1146.23 542.921V361.895H1164.21V542.921H1146.23Z" fill="#FFB600"/>
<path fill-rule="evenodd" clip-rule="evenodd" d="M1183.47 542.921V361.895H1201.45V542.921H1183.47Z" fill="#FFB600"/>
<path fill-rule="evenodd" clip-rule="evenodd" d="M1220.7 542.921V361.895H1238.67V542.921H1220.7Z" fill="#FFB600"/>
<path fill-rule="evenodd" clip-rule="evenodd" d="M979.331 183.434L1146.24 361.894H1164.21L997.305 183.434H979.331Z" fill="#FFB600"/>
<path fill-rule="evenodd" clip-rule="evenodd" d="M1016.57 183.434L1183.47 361.894H1201.45L1034.54 183.434H1016.57Z" fill="#FFB600"/>
<path fill-rule="evenodd" clip-rule="evenodd" d="M1053.79 183.434L1220.7 361.894H1238.67L1071.77 183.434H1053.79Z" fill="#FFB600"/>
<path fill-rule="evenodd" clip-rule="evenodd" d="M1091.03 183.434L1257.29 361.894H1275.26L1109 183.434H1091.03Z" fill="#FFB600"/>
<path fill-rule="evenodd" clip-rule="evenodd" d="M1275.26 183.434L1108.36 361.894H1090.38L1257.29 183.434H1275.26Z" fill="#D04A02"/>
<path fill-rule="evenodd" clip-rule="evenodd" d="M1238.04 183.434L1071.13 361.894H1053.16L1220.06 183.434H1238.04Z" fill="#D04A02"/>
<path fill-rule="evenodd" clip-rule="evenodd" d="M1200.8 183.434L1033.9 361.894H1015.92L1182.83 183.434H1200.8Z" fill="#D04A02"/>
<path fill-rule="evenodd" clip-rule="evenodd" d="M1163.57 183.434L997.305 361.894H979.331L1145.59 183.434H1163.57Z" fill="#D04A02"/>
<path fill-rule="evenodd" clip-rule="evenodd" d="M979.331 903.167V722.141H997.309V903.167H979.331Z" fill="#FFB600"/>
<path fill-rule="evenodd" clip-rule="evenodd" d="M1016.57 903.167V722.141H1034.53V903.167H1016.57Z" fill="#FFB600"/>
<path fill-rule="evenodd" clip-rule="evenodd" d="M1053.79 903.167V722.141H1071.77V903.167H1053.79Z" fill="#FFB600"/>
<path fill-rule="evenodd" clip-rule="evenodd" d="M1091.03 903.167V722.141H1109.01V903.167H1091.03Z" fill="#FFB600"/>
<path fill-rule="evenodd" clip-rule="evenodd" d="M1257.29 903.167V722.141H1275.26V903.167H1257.29Z" fill="#D04A02"/>
<path fill-rule="evenodd" clip-rule="evenodd" d="M1146.23 903.167V722.141H1164.21V903.167H1146.23Z" fill="#D04A02"/>
<path fill-rule="evenodd" clip-rule="evenodd" d="M1183.47 903.167V722.141H1201.45V903.167H1183.47Z" fill="#D04A02"/>
<path fill-rule="evenodd" clip-rule="evenodd" d="M1220.7 903.167V722.141H1238.67V903.167H1220.7Z" fill="#D04A02"/>
<path fill-rule="evenodd" clip-rule="evenodd" d="M979.331 543.68L1146.24 722.14H1164.21L997.305 543.68H979.331Z" fill="#D04A02"/>
<path fill-rule="evenodd" clip-rule="evenodd" d="M1016.57 543.68L1183.47 722.14H1201.45L1034.54 543.68H1016.57Z" fill="#D04A02"/>
<path fill-rule="evenodd" clip-rule="evenodd" d="M1053.79 543.68L1220.7 722.14H1238.67L1071.77 543.68H1053.79Z" fill="#D04A02"/>
<path fill-rule="evenodd" clip-rule="evenodd" d="M1091.03 543.68L1257.29 722.14H1275.26L1109 543.68H1091.03Z" fill="#D04A02"/>
<path fill-rule="evenodd" clip-rule="evenodd" d="M1275.26 543.68L1108.36 722.14H1090.38L1257.29 543.68H1275.26Z" fill="#FFB600"/>
<path fill-rule="evenodd" clip-rule="evenodd" d="M1238.04 543.68L1071.13 722.14H1053.16L1220.06 543.68H1238.04Z" fill="#FFB600"/>
<path fill-rule="evenodd" clip-rule="evenodd" d="M1200.8 543.68L1033.9 722.14H1015.92L1182.83 543.68H1200.8Z" fill="#FFB600"/>
<path fill-rule="evenodd" clip-rule="evenodd" d="M1163.57 543.68L997.305 722.14H979.331L1145.59 543.68H1163.57Z" fill="#FFB600"/>
<path fill-rule="evenodd" clip-rule="evenodd" d="M979.331 903.539L1146.24 1082H1164.21L997.305 903.539H979.331Z" fill="#FFB600"/>
<path fill-rule="evenodd" clip-rule="evenodd" d="M1016.57 903.539L1183.47 1082H1201.45L1034.54 903.539H1016.57Z" fill="#FFB600"/>
<path fill-rule="evenodd" clip-rule="evenodd" d="M1053.79 903.539L1220.7 1082H1238.67L1071.77 903.539H1053.79Z" fill="#FFB600"/>
<path fill-rule="evenodd" clip-rule="evenodd" d="M1091.03 903.539L1257.29 1082H1275.26L1109 903.539H1091.03Z" fill="#FFB600"/>
<path fill-rule="evenodd" clip-rule="evenodd" d="M1275.26 903.539L1108.36 1082H1090.38L1257.29 903.539H1275.26Z" fill="#D04A02"/>
<path fill-rule="evenodd" clip-rule="evenodd" d="M1238.04 903.539L1071.13 1082H1053.16L1220.06 903.539H1238.04Z" fill="#D04A02"/>
<path fill-rule="evenodd" clip-rule="evenodd" d="M1200.8 903.539L1033.9 1082H1015.92L1182.83 903.539H1200.8Z" fill="#D04A02"/>
<path fill-rule="evenodd" clip-rule="evenodd" d="M1163.57 903.539L997.305 1082H979.331L1145.59 903.539H1163.57Z" fill="#D04A02"/>
<path fill-rule="evenodd" clip-rule="evenodd" d="M1312.37 361.835V180.809H1330.34V361.835H1312.37Z" fill="#D04A02"/>
<path fill-rule="evenodd" clip-rule="evenodd" d="M1349.6 361.835V180.809H1367.58V361.835H1349.6Z" fill="#D04A02"/>
<path fill-rule="evenodd" clip-rule="evenodd" d="M1386.84 361.835V180.809H1404.81V361.835H1386.84Z" fill="#D04A02"/>
<path fill-rule="evenodd" clip-rule="evenodd" d="M1424.06 361.835V180.809H1442.04V361.835H1424.06Z" fill="#D04A02"/>
<path fill-rule="evenodd" clip-rule="evenodd" d="M1590.33 361.835V180.809H1608.31V361.835H1590.33Z" fill="#FFB600"/>
<path fill-rule="evenodd" clip-rule="evenodd" d="M1479.28 361.835V180.809H1497.24V361.835H1479.28Z" fill="#FFB600"/>
<path fill-rule="evenodd" clip-rule="evenodd" d="M1516.5 361.835V180.809H1534.48V361.835H1516.5Z" fill="#FFB600"/>
<path fill-rule="evenodd" clip-rule="evenodd" d="M1553.74 361.835V180.809H1571.72V361.835H1553.74Z" fill="#FFB600"/>
<path fill-rule="evenodd" clip-rule="evenodd" d="M1312.37 2.34766L1479.27 180.808H1497.25L1330.34 2.34766H1312.37Z" fill="#FFB600"/>
<path fill-rule="evenodd" clip-rule="evenodd" d="M1349.6 2.34766L1516.51 180.808H1534.48L1367.58 2.34766H1349.6Z" fill="#FFB600"/>
<path fill-rule="evenodd" clip-rule="evenodd" d="M1386.84 2.34766L1553.74 180.808H1571.72L1404.81 2.34766H1386.84Z" fill="#FFB600"/>
<path fill-rule="evenodd" clip-rule="evenodd" d="M1424.06 2.34766L1590.33 180.808H1608.31L1442.04 2.34766H1424.06Z" fill="#FFB600"/>
<path fill-rule="evenodd" clip-rule="evenodd" d="M1608.31 2.34766L1441.4 180.808H1423.43L1590.33 2.34766H1608.31Z" fill="#D04A02"/>
<path fill-rule="evenodd" clip-rule="evenodd" d="M1571.07 2.34766L1404.17 180.808H1386.19L1553.1 2.34766H1571.07Z" fill="#D04A02"/>
<path fill-rule="evenodd" clip-rule="evenodd" d="M1533.84 2.34766L1366.93 180.808H1348.96L1515.86 2.34766H1533.84Z" fill="#D04A02"/>
<path fill-rule="evenodd" clip-rule="evenodd" d="M1496.6 2.34766L1330.34 180.808H1312.37L1478.63 2.34766H1496.6Z" fill="#D04A02"/>
<path fill-rule="evenodd" clip-rule="evenodd" d="M1312.37 722.073V541.047H1330.34V722.073H1312.37Z" fill="#FFB600"/>
<path fill-rule="evenodd" clip-rule="evenodd" d="M1349.6 722.073V541.047H1367.58V722.073H1349.6Z" fill="#FFB600"/>
<path fill-rule="evenodd" clip-rule="evenodd" d="M1386.84 722.073V541.047H1404.81V722.073H1386.84Z" fill="#FFB600"/>
<path fill-rule="evenodd" clip-rule="evenodd" d="M1424.06 722.073V541.047H1442.04V722.073H1424.06Z" fill="#FFB600"/>
<path fill-rule="evenodd" clip-rule="evenodd" d="M1590.33 722.073V541.047H1608.31V722.073H1590.33Z" fill="#D04A02"/>
<path fill-rule="evenodd" clip-rule="evenodd" d="M1479.28 722.073V541.047H1497.24V722.073H1479.28Z" fill="#D04A02"/>
<path fill-rule="evenodd" clip-rule="evenodd" d="M1516.5 722.073V541.047H1534.48V722.073H1516.5Z" fill="#D04A02"/>
<path fill-rule="evenodd" clip-rule="evenodd" d="M1553.74 722.073V541.047H1571.72V722.073H1553.74Z" fill="#D04A02"/>
<path fill-rule="evenodd" clip-rule="evenodd" d="M1312.37 362.586L1479.27 541.047H1497.25L1330.34 362.586H1312.37Z" fill="#D04A02"/>
<path fill-rule="evenodd" clip-rule="evenodd" d="M1349.6 362.586L1516.51 541.047H1534.48L1367.58 362.586H1349.6Z" fill="#D04A02"/>
<path fill-rule="evenodd" clip-rule="evenodd" d="M1386.84 362.586L1553.74 541.047H1571.72L1404.81 362.586H1386.84Z" fill="#D04A02"/>
<path fill-rule="evenodd" clip-rule="evenodd" d="M1424.06 362.586L1590.33 541.047H1608.31L1442.04 362.586H1424.06Z" fill="#D04A02"/>
<path fill-rule="evenodd" clip-rule="evenodd" d="M1608.31 362.586L1441.4 541.047H1423.43L1590.33 362.586H1608.31Z" fill="#FFB600"/>
<path fill-rule="evenodd" clip-rule="evenodd" d="M1571.07 362.586L1404.17 541.047H1386.19L1553.1 362.586H1571.07Z" fill="#FFB600"/>
<path fill-rule="evenodd" clip-rule="evenodd" d="M1533.84 362.586L1366.93 541.047H1348.96L1515.86 362.586H1533.84Z" fill="#FFB600"/>
<path fill-rule="evenodd" clip-rule="evenodd" d="M1496.6 362.586L1330.34 541.047H1312.37L1478.63 362.586H1496.6Z" fill="#FFB600"/>
<path fill-rule="evenodd" clip-rule="evenodd" d="M1312.37 1081.94V900.902H1330.34V1081.94H1312.37Z" fill="#D04A02"/>
<path fill-rule="evenodd" clip-rule="evenodd" d="M1349.6 1081.94V900.902H1367.58V1081.94H1349.6Z" fill="#D04A02"/>
<path fill-rule="evenodd" clip-rule="evenodd" d="M1386.84 1081.94V900.902H1404.81V1081.94H1386.84Z" fill="#D04A02"/>
<path fill-rule="evenodd" clip-rule="evenodd" d="M1424.06 1081.94V900.902H1442.04V1081.94H1424.06Z" fill="#D04A02"/>
<path fill-rule="evenodd" clip-rule="evenodd" d="M1590.33 1081.94V900.902H1608.31V1081.94H1590.33Z" fill="#FFB600"/>
<path fill-rule="evenodd" clip-rule="evenodd" d="M1479.28 1081.94V900.902H1497.24V1081.94H1479.28Z" fill="#FFB600"/>
<path fill-rule="evenodd" clip-rule="evenodd" d="M1516.5 1081.94V900.902H1534.48V1081.94H1516.5Z" fill="#FFB600"/>
<path fill-rule="evenodd" clip-rule="evenodd" d="M1553.74 1081.94V900.902H1571.72V1081.94H1553.74Z" fill="#FFB600"/>
<path fill-rule="evenodd" clip-rule="evenodd" d="M1312.37 722.441L1479.27 900.902H1497.25L1330.34 722.441H1312.37Z" fill="#FFB600"/>
<path fill-rule="evenodd" clip-rule="evenodd" d="M1349.6 722.441L1516.51 900.902H1534.48L1367.58 722.441H1349.6Z" fill="#FFB600"/>
<path fill-rule="evenodd" clip-rule="evenodd" d="M1386.84 722.441L1553.74 900.902H1571.72L1404.81 722.441H1386.84Z" fill="#FFB600"/>
<path fill-rule="evenodd" clip-rule="evenodd" d="M1424.06 722.441L1590.33 900.902H1608.31L1442.04 722.441H1424.06Z" fill="#FFB600"/>
<path fill-rule="evenodd" clip-rule="evenodd" d="M1608.31 722.441L1441.4 900.902H1423.43L1590.33 722.441H1608.31Z" fill="#D04A02"/>
<path fill-rule="evenodd" clip-rule="evenodd" d="M1571.07 722.441L1404.17 900.902H1386.19L1553.1 722.441H1571.07Z" fill="#D04A02"/>
<path fill-rule="evenodd" clip-rule="evenodd" d="M1533.84 722.441L1366.93 900.902H1348.96L1515.86 722.441H1533.84Z" fill="#D04A02"/>
<path fill-rule="evenodd" clip-rule="evenodd" d="M1496.6 722.441L1330.34 900.902H1312.37L1478.63 722.441H1496.6Z" fill="#D04A02"/>
<path fill-rule="evenodd" clip-rule="evenodd" d="M313.223 183.065V2.03906H331.202V183.065H313.223Z" fill="#FFB600"/>
<path fill-rule="evenodd" clip-rule="evenodd" d="M350.459 183.065V2.03906H368.438V183.065H350.459Z" fill="#FFB600"/>
<path fill-rule="evenodd" clip-rule="evenodd" d="M387.694 183.065V2.03906H405.663V183.065H387.694Z" fill="#FFB600"/>
<path fill-rule="evenodd" clip-rule="evenodd" d="M424.93 183.065V2.03906H442.899V183.065H424.93Z" fill="#FFB600"/>
<path fill-rule="evenodd" clip-rule="evenodd" d="M591.187 183.065V2.03906H609.165V183.065H591.187Z" fill="#D04A02"/>
<path fill-rule="evenodd" clip-rule="evenodd" d="M480.134 183.065V2.03906H498.103V183.065H480.134Z" fill="#D04A02"/>
<path fill-rule="evenodd" clip-rule="evenodd" d="M517.369 183.065V2.03906H535.338V183.065H517.369Z" fill="#D04A02"/>
<path fill-rule="evenodd" clip-rule="evenodd" d="M554.595 183.065V2.03906H572.574V183.065H554.595Z" fill="#D04A02"/>
<path fill-rule="evenodd" clip-rule="evenodd" d="M313.223 542.921V361.895H331.202V542.921H313.223Z" fill="#D04A02"/>
<path fill-rule="evenodd" clip-rule="evenodd" d="M350.459 542.921V361.895H368.438V542.921H350.459Z" fill="#D04A02"/>
<path fill-rule="evenodd" clip-rule="evenodd" d="M387.694 542.921V361.895H405.663V542.921H387.694Z" fill="#D04A02"/>
<path fill-rule="evenodd" clip-rule="evenodd" d="M424.93 542.921V361.895H442.899V542.921H424.93Z" fill="#D04A02"/>
<path fill-rule="evenodd" clip-rule="evenodd" d="M591.187 542.921V361.895H609.165V542.921H591.187Z" fill="#FFB600"/>
<path fill-rule="evenodd" clip-rule="evenodd" d="M480.134 542.921V361.895H498.103V542.921H480.134Z" fill="#FFB600"/>
<path fill-rule="evenodd" clip-rule="evenodd" d="M517.369 542.921V361.895H535.338V542.921H517.369Z" fill="#FFB600"/>
<path fill-rule="evenodd" clip-rule="evenodd" d="M554.595 542.921V361.895H572.574V542.921H554.595Z" fill="#FFB600"/>
<path fill-rule="evenodd" clip-rule="evenodd" d="M313.223 183.434L480.128 361.894H498.103L331.198 183.434H313.223Z" fill="#FFB600"/>
<path fill-rule="evenodd" clip-rule="evenodd" d="M350.459 183.434L517.364 361.894H535.338L368.433 183.434H350.459Z" fill="#FFB600"/>
<path fill-rule="evenodd" clip-rule="evenodd" d="M387.694 183.434L554.599 361.894H572.574L405.669 183.434H387.694Z" fill="#FFB600"/>
<path fill-rule="evenodd" clip-rule="evenodd" d="M424.93 183.434L591.191 361.894H609.165L442.904 183.434H424.93Z" fill="#FFB600"/>
<path fill-rule="evenodd" clip-rule="evenodd" d="M609.165 183.434L442.26 361.894H424.286L591.191 183.434H609.165Z" fill="#D04A02"/>
<path fill-rule="evenodd" clip-rule="evenodd" d="M571.93 183.434L405.025 361.894H387.05L553.955 183.434H571.93Z" fill="#D04A02"/>
<path fill-rule="evenodd" clip-rule="evenodd" d="M534.694 183.434L367.789 361.894H349.815L516.72 183.434H534.694Z" fill="#D04A02"/>
<path fill-rule="evenodd" clip-rule="evenodd" d="M497.469 183.434L331.199 361.894H313.223L479.494 183.434H497.469Z" fill="#D04A02"/>
<path fill-rule="evenodd" clip-rule="evenodd" d="M313.223 903.167V722.141H331.202V903.167H313.223Z" fill="#FFB600"/>
<path fill-rule="evenodd" clip-rule="evenodd" d="M350.459 903.167V722.141H368.438V903.167H350.459Z" fill="#FFB600"/>
<path fill-rule="evenodd" clip-rule="evenodd" d="M387.694 903.167V722.141H405.663V903.167H387.694Z" fill="#FFB600"/>
<path fill-rule="evenodd" clip-rule="evenodd" d="M424.93 903.167V722.141H442.899V903.167H424.93Z" fill="#FFB600"/>
<path fill-rule="evenodd" clip-rule="evenodd" d="M591.187 903.167V722.141H609.165V903.167H591.187Z" fill="#D04A02"/>
<path fill-rule="evenodd" clip-rule="evenodd" d="M480.134 903.167V722.141H498.103V903.167H480.134Z" fill="#D04A02"/>
<path fill-rule="evenodd" clip-rule="evenodd" d="M517.369 903.167V722.141H535.338V903.167H517.369Z" fill="#D04A02"/>
<path fill-rule="evenodd" clip-rule="evenodd" d="M554.595 903.167V722.141H572.574V903.167H554.595Z" fill="#D04A02"/>
<path fill-rule="evenodd" clip-rule="evenodd" d="M313.223 543.68L480.128 722.14H498.103L331.198 543.68H313.223Z" fill="#D04A02"/>
<path fill-rule="evenodd" clip-rule="evenodd" d="M350.459 543.68L517.364 722.14H535.338L368.433 543.68H350.459Z" fill="#D04A02"/>
<path fill-rule="evenodd" clip-rule="evenodd" d="M387.694 543.68L554.599 722.14H572.574L405.669 543.68H387.694Z" fill="#D04A02"/>
<path fill-rule="evenodd" clip-rule="evenodd" d="M424.93 543.68L591.191 722.14H609.165L442.904 543.68H424.93Z" fill="#D04A02"/>
<path fill-rule="evenodd" clip-rule="evenodd" d="M609.165 543.68L442.26 722.14H424.286L591.191 543.68H609.165Z" fill="#FFB600"/>
<path fill-rule="evenodd" clip-rule="evenodd" d="M571.93 543.68L405.025 722.14H387.05L553.955 543.68H571.93Z" fill="#FFB600"/>
<path fill-rule="evenodd" clip-rule="evenodd" d="M534.694 543.68L367.789 722.14H349.815L516.72 543.68H534.694Z" fill="#FFB600"/>
<path fill-rule="evenodd" clip-rule="evenodd" d="M497.469 543.68L331.199 722.14H313.223L479.494 543.68H497.469Z" fill="#FFB600"/>
<path fill-rule="evenodd" clip-rule="evenodd" d="M313.223 903.539L480.128 1082H498.103L331.198 903.539H313.223Z" fill="#FFB600"/>
<path fill-rule="evenodd" clip-rule="evenodd" d="M350.459 903.539L517.364 1082H535.338L368.433 903.539H350.459Z" fill="#FFB600"/>
<path fill-rule="evenodd" clip-rule="evenodd" d="M387.694 903.539L554.599 1082H572.574L405.669 903.539H387.694Z" fill="#FFB600"/>
<path fill-rule="evenodd" clip-rule="evenodd" d="M424.93 903.539L591.191 1082H609.165L442.904 903.539H424.93Z" fill="#FFB600"/>
<path fill-rule="evenodd" clip-rule="evenodd" d="M609.165 903.539L442.26 1082H424.286L591.191 903.539H609.165Z" fill="#D04A02"/>
<path fill-rule="evenodd" clip-rule="evenodd" d="M571.93 903.539L405.025 1082H387.05L553.955 903.539H571.93Z" fill="#D04A02"/>
<path fill-rule="evenodd" clip-rule="evenodd" d="M534.694 903.539L367.789 1082H349.815L516.72 903.539H534.694Z" fill="#D04A02"/>
<path fill-rule="evenodd" clip-rule="evenodd" d="M497.469 903.539L331.199 1082H313.223L479.494 903.539H497.469Z" fill="#D04A02"/>
<path fill-rule="evenodd" clip-rule="evenodd" d="M646.269 361.835V180.809H664.237V361.835H646.269Z" fill="#D04A02"/>
<path fill-rule="evenodd" clip-rule="evenodd" d="M683.494 361.835V180.809H701.473V361.835H683.494Z" fill="#D04A02"/>
<path fill-rule="evenodd" clip-rule="evenodd" d="M720.729 361.835V180.809H738.708V361.835H720.729Z" fill="#D04A02"/>
<path fill-rule="evenodd" clip-rule="evenodd" d="M757.965 361.835V180.809H775.934V361.835H757.965Z" fill="#D04A02"/>
<path fill-rule="evenodd" clip-rule="evenodd" d="M924.221 361.835V180.809H942.2V361.835H924.221Z" fill="#FFB600"/>
<path fill-rule="evenodd" clip-rule="evenodd" d="M813.169 361.835V180.809H831.148V361.835H813.169Z" fill="#FFB600"/>
<path fill-rule="evenodd" clip-rule="evenodd" d="M850.405 361.835V180.809H868.373V361.835H850.405Z" fill="#FFB600"/>
<path fill-rule="evenodd" clip-rule="evenodd" d="M887.63 361.835V180.809H905.609V361.835H887.63Z" fill="#FFB600"/>
<path fill-rule="evenodd" clip-rule="evenodd" d="M646.269 2.34766L813.174 180.808H831.148L664.243 2.34766H646.269Z" fill="#FFB600"/>
<path fill-rule="evenodd" clip-rule="evenodd" d="M683.494 2.34766L850.399 180.808H868.374L701.469 2.34766H683.494Z" fill="#FFB600"/>
<path fill-rule="evenodd" clip-rule="evenodd" d="M720.729 2.34766L887.634 180.808H905.609L738.704 2.34766H720.729Z" fill="#FFB600"/>
<path fill-rule="evenodd" clip-rule="evenodd" d="M757.965 2.34766L924.226 180.808H942.2L775.939 2.34766H757.965Z" fill="#FFB600"/>
<path fill-rule="evenodd" clip-rule="evenodd" d="M942.201 2.34766L775.295 180.808H757.321L924.226 2.34766H942.201Z" fill="#D04A02"/>
<path fill-rule="evenodd" clip-rule="evenodd" d="M904.965 2.34766L738.06 180.808H720.086L886.991 2.34766H904.965Z" fill="#D04A02"/>
<path fill-rule="evenodd" clip-rule="evenodd" d="M867.74 2.34766L700.825 180.808H682.85L849.764 2.34766H867.74Z" fill="#D04A02"/>
<path fill-rule="evenodd" clip-rule="evenodd" d="M830.504 2.34766L664.243 180.808H646.269L812.53 2.34766H830.504Z" fill="#D04A02"/>
<path fill-rule="evenodd" clip-rule="evenodd" d="M646.269 722.073V541.047H664.237V722.073H646.269Z" fill="#FFB600"/>
<path fill-rule="evenodd" clip-rule="evenodd" d="M683.494 722.073V541.047H701.473V722.073H683.494Z" fill="#FFB600"/>
<path fill-rule="evenodd" clip-rule="evenodd" d="M720.729 722.073V541.047H738.708V722.073H720.729Z" fill="#FFB600"/>
<path fill-rule="evenodd" clip-rule="evenodd" d="M757.965 722.073V541.047H775.934V722.073H757.965Z" fill="#FFB600"/>
<path fill-rule="evenodd" clip-rule="evenodd" d="M924.221 722.073V541.047H942.2V722.073H924.221Z" fill="#D04A02"/>
<path fill-rule="evenodd" clip-rule="evenodd" d="M813.169 722.073V541.047H831.148V722.073H813.169Z" fill="#D04A02"/>
<path fill-rule="evenodd" clip-rule="evenodd" d="M850.405 722.073V541.047H868.373V722.073H850.405Z" fill="#D04A02"/>
<path fill-rule="evenodd" clip-rule="evenodd" d="M887.63 722.073V541.047H905.609V722.073H887.63Z" fill="#D04A02"/>
<path fill-rule="evenodd" clip-rule="evenodd" d="M646.269 362.586L813.174 541.047H831.148L664.243 362.586H646.269Z" fill="#D04A02"/>
<path fill-rule="evenodd" clip-rule="evenodd" d="M683.494 362.586L850.399 541.047H868.374L701.469 362.586H683.494Z" fill="#D04A02"/>
<path fill-rule="evenodd" clip-rule="evenodd" d="M720.729 362.586L887.634 541.047H905.609L738.704 362.586H720.729Z" fill="#D04A02"/>
<path fill-rule="evenodd" clip-rule="evenodd" d="M757.965 362.586L924.226 541.047H942.2L775.939 362.586H757.965Z" fill="#D04A02"/>
<path fill-rule="evenodd" clip-rule="evenodd" d="M942.201 362.586L775.295 541.047H757.321L924.226 362.586H942.201Z" fill="#FFB600"/>
<path fill-rule="evenodd" clip-rule="evenodd" d="M904.965 362.586L738.06 541.047H720.086L886.991 362.586H904.965Z" fill="#FFB600"/>
<path fill-rule="evenodd" clip-rule="evenodd" d="M867.74 362.586L700.825 541.047H682.85L849.764 362.586H867.74Z" fill="#FFB600"/>
<path fill-rule="evenodd" clip-rule="evenodd" d="M830.504 362.586L664.243 541.047H646.269L812.53 362.586H830.504Z" fill="#FFB600"/>
<path fill-rule="evenodd" clip-rule="evenodd" d="M646.269 1081.94V900.902H664.237V1081.94H646.269Z" fill="#D04A02"/>
<path fill-rule="evenodd" clip-rule="evenodd" d="M683.494 1081.94V900.902H701.473V1081.94H683.494Z" fill="#D04A02"/>
<path fill-rule="evenodd" clip-rule="evenodd" d="M720.729 1081.94V900.902H738.708V1081.94H720.729Z" fill="#D04A02"/>
<path fill-rule="evenodd" clip-rule="evenodd" d="M757.965 1081.94V900.902H775.934V1081.94H757.965Z" fill="#D04A02"/>
<path fill-rule="evenodd" clip-rule="evenodd" d="M924.221 1081.94V900.902H942.2V1081.94H924.221Z" fill="#FFB600"/>
<path fill-rule="evenodd" clip-rule="evenodd" d="M813.169 1081.94V900.902H831.148V1081.94H813.169Z" fill="#FFB600"/>
<path fill-rule="evenodd" clip-rule="evenodd" d="M850.405 1081.94V900.902H868.373V1081.94H850.405Z" fill="#FFB600"/>
<path fill-rule="evenodd" clip-rule="evenodd" d="M887.63 1081.94V900.902H905.609V1081.94H887.63Z" fill="#FFB600"/>
<path fill-rule="evenodd" clip-rule="evenodd" d="M646.269 722.441L813.174 900.902H831.148L664.243 722.441H646.269Z" fill="#FFB600"/>
<path fill-rule="evenodd" clip-rule="evenodd" d="M683.494 722.441L850.399 900.902H868.374L701.469 722.441H683.494Z" fill="#FFB600"/>
<path fill-rule="evenodd" clip-rule="evenodd" d="M720.729 722.441L887.634 900.902H905.609L738.704 722.441H720.729Z" fill="#FFB600"/>
<path fill-rule="evenodd" clip-rule="evenodd" d="M757.965 722.441L924.226 900.902H942.2L775.939 722.441H757.965Z" fill="#FFB600"/>
<path fill-rule="evenodd" clip-rule="evenodd" d="M942.201 722.441L775.295 900.902H757.321L924.226 722.441H942.201Z" fill="#D04A02"/>
<path fill-rule="evenodd" clip-rule="evenodd" d="M904.965 722.441L738.06 900.902H720.086L886.991 722.441H904.965Z" fill="#D04A02"/>
<path fill-rule="evenodd" clip-rule="evenodd" d="M867.74 722.441L700.825 900.902H682.85L849.764 722.441H867.74Z" fill="#D04A02"/>
<path fill-rule="evenodd" clip-rule="evenodd" d="M830.504 722.441L664.243 900.902H646.269L812.53 722.441H830.504Z" fill="#D04A02"/>
<path fill-rule="evenodd" clip-rule="evenodd" d="M1645.44 183.065V2.03906H1663.41V183.065H1645.44Z" fill="#FFB600"/>
<path fill-rule="evenodd" clip-rule="evenodd" d="M1682.66 183.065V2.03906H1700.64V183.065H1682.66Z" fill="#FFB600"/>
<path fill-rule="evenodd" clip-rule="evenodd" d="M1719.9 183.065V2.03906H1737.88V183.065H1719.9Z" fill="#FFB600"/>
<path fill-rule="evenodd" clip-rule="evenodd" d="M1757.13 183.065V2.03906H1775.1V183.065H1757.13Z" fill="#FFB600"/>
<path fill-rule="evenodd" clip-rule="evenodd" d="M1812.34 183.065V2.03906H1830.32V183.065H1812.34Z" fill="#D04A02"/>
<path fill-rule="evenodd" clip-rule="evenodd" d="M1849.57 183.065V2.03906H1867.54V183.065H1849.57Z" fill="#D04A02"/>
<path fill-rule="evenodd" clip-rule="evenodd" d="M1886.81 183.065V2.03906H1904.78V183.065H1886.81Z" fill="#D04A02"/>
<path fill-rule="evenodd" clip-rule="evenodd" d="M1645.44 542.921V361.895H1663.41V542.921H1645.44Z" fill="#D04A02"/>
<path fill-rule="evenodd" clip-rule="evenodd" d="M1682.66 542.921V361.895H1700.64V542.921H1682.66Z" fill="#D04A02"/>
<path fill-rule="evenodd" clip-rule="evenodd" d="M1719.9 542.921V361.895H1737.88V542.921H1719.9Z" fill="#D04A02"/>
<path fill-rule="evenodd" clip-rule="evenodd" d="M1757.13 542.921V361.895H1775.1V542.921H1757.13Z" fill="#D04A02"/>
<path fill-rule="evenodd" clip-rule="evenodd" d="M1812.34 542.921V361.895H1830.32V542.921H1812.34Z" fill="#FFB600"/>
<path fill-rule="evenodd" clip-rule="evenodd" d="M1849.57 542.921V361.895H1867.54V542.921H1849.57Z" fill="#FFB600"/>
<path fill-rule="evenodd" clip-rule="evenodd" d="M1886.81 542.921V361.895H1904.78V542.921H1886.81Z" fill="#FFB600"/>
<path fill-rule="evenodd" clip-rule="evenodd" d="M1645.44 183.434L1812.34 361.894H1830.32L1663.41 183.434H1645.44Z" fill="#FFB600"/>
<path fill-rule="evenodd" clip-rule="evenodd" d="M1682.66 183.434L1849.57 361.894H1867.54L1700.64 183.434H1682.66Z" fill="#FFB600"/>
<path fill-rule="evenodd" clip-rule="evenodd" d="M1719.9 183.434L1886.8 361.894H1904.78L1737.87 183.434H1719.9Z" fill="#FFB600"/>
<path fill-rule="evenodd" clip-rule="evenodd" d="M1757.13 183.434L1923.4 361.894H1941.37L1775.11 183.434H1757.13Z" fill="#FFB600"/>
<path fill-rule="evenodd" clip-rule="evenodd" d="M1941.37 183.434L1774.46 361.894H1756.49L1923.39 183.434H1941.37Z" fill="#D04A02"/>
<path fill-rule="evenodd" clip-rule="evenodd" d="M1904.13 183.434L1737.23 361.894H1719.25L1886.16 183.434H1904.13Z" fill="#D04A02"/>
<path fill-rule="evenodd" clip-rule="evenodd" d="M1866.91 183.434L1700 361.894H1682.03L1848.93 183.434H1866.91Z" fill="#D04A02"/>
<path fill-rule="evenodd" clip-rule="evenodd" d="M1829.67 183.434L1663.41 361.894H1645.44L1811.7 183.434H1829.67Z" fill="#D04A02"/>
<path fill-rule="evenodd" clip-rule="evenodd" d="M1645.44 903.167V722.141H1663.41V903.167H1645.44Z" fill="#FFB600"/>
<path fill-rule="evenodd" clip-rule="evenodd" d="M1682.66 903.167V722.141H1700.64V903.167H1682.66Z" fill="#FFB600"/>
<path fill-rule="evenodd" clip-rule="evenodd" d="M1719.9 903.167V722.141H1737.88V903.167H1719.9Z" fill="#FFB600"/>
<path fill-rule="evenodd" clip-rule="evenodd" d="M1757.13 903.167V722.141H1775.1V903.167H1757.13Z" fill="#FFB600"/>
<path fill-rule="evenodd" clip-rule="evenodd" d="M1812.34 903.167V722.141H1830.32V903.167H1812.34Z" fill="#D04A02"/>
<path fill-rule="evenodd" clip-rule="evenodd" d="M1849.57 903.167V722.141H1867.54V903.167H1849.57Z" fill="#D04A02"/>
<path fill-rule="evenodd" clip-rule="evenodd" d="M1886.81 903.167V722.141H1904.78V903.167H1886.81Z" fill="#D04A02"/>
<path fill-rule="evenodd" clip-rule="evenodd" d="M1645.44 543.68L1812.34 722.14H1830.32L1663.41 543.68H1645.44Z" fill="#D04A02"/>
<path fill-rule="evenodd" clip-rule="evenodd" d="M1682.66 543.68L1849.57 722.14H1867.54L1700.64 543.68H1682.66Z" fill="#D04A02"/>
<path fill-rule="evenodd" clip-rule="evenodd" d="M1719.9 543.68L1886.8 722.14H1904.78L1737.87 543.68H1719.9Z" fill="#D04A02"/>
<path fill-rule="evenodd" clip-rule="evenodd" d="M1757.13 543.68L1923.4 722.14H1941.37L1775.11 543.68H1757.13Z" fill="#D04A02"/>
<path fill-rule="evenodd" clip-rule="evenodd" d="M1941.37 543.68L1774.46 722.14H1756.49L1923.39 543.68H1941.37Z" fill="#FFB600"/>
<path fill-rule="evenodd" clip-rule="evenodd" d="M1904.13 543.68L1737.23 722.14H1719.25L1886.16 543.68H1904.13Z" fill="#FFB600"/>
<path fill-rule="evenodd" clip-rule="evenodd" d="M1866.91 543.68L1700 722.14H1682.03L1848.93 543.68H1866.91Z" fill="#FFB600"/>
<path fill-rule="evenodd" clip-rule="evenodd" d="M1829.67 543.68L1663.41 722.14H1645.44L1811.7 543.68H1829.67Z" fill="#FFB600"/>
<path fill-rule="evenodd" clip-rule="evenodd" d="M1645.44 903.539L1812.34 1082H1830.32L1663.41 903.539H1645.44Z" fill="#FFB600"/>
<path fill-rule="evenodd" clip-rule="evenodd" d="M1682.66 903.539L1849.57 1082H1867.54L1700.64 903.539H1682.66Z" fill="#FFB600"/>
<path fill-rule="evenodd" clip-rule="evenodd" d="M1719.9 903.539L1886.8 1082H1904.78L1737.87 903.539H1719.9Z" fill="#FFB600"/>
<path fill-rule="evenodd" clip-rule="evenodd" d="M1757.13 903.539L1923.4 1082H1941.37L1775.11 903.539H1757.13Z" fill="#FFB600"/>
<path fill-rule="evenodd" clip-rule="evenodd" d="M1941.37 903.539L1774.46 1082H1756.49L1923.39 903.539H1941.37Z" fill="#D04A02"/>
<path fill-rule="evenodd" clip-rule="evenodd" d="M1904.13 903.539L1737.23 1082H1719.25L1886.16 903.539H1904.13Z" fill="#D04A02"/>
<path fill-rule="evenodd" clip-rule="evenodd" d="M1866.91 903.539L1700 1082H1682.03L1848.93 903.539H1866.91Z" fill="#D04A02"/>
<path fill-rule="evenodd" clip-rule="evenodd" d="M1829.67 903.539L1663.41 1082H1645.44L1811.7 903.539H1829.67Z" fill="#D04A02"/>
<path fill-rule="evenodd" clip-rule="evenodd" d="M17.397 361.835V180.809H35.3658V361.835H17.397Z" fill="#D04A02"/>
<path fill-rule="evenodd" clip-rule="evenodd" d="M54.6226 361.835V180.809H72.6014V361.835H54.6226Z" fill="#D04A02"/>
<path fill-rule="evenodd" clip-rule="evenodd" d="M91.8579 361.835V180.809H109.837V361.835H91.8579Z" fill="#D04A02"/>
<path fill-rule="evenodd" clip-rule="evenodd" d="M258.125 361.835V180.809H276.093V361.835H258.125Z" fill="#FFB600"/>
<path fill-rule="evenodd" clip-rule="evenodd" d="M147.062 361.835V180.809H165.041V361.835H147.062Z" fill="#FFB600"/>
<path fill-rule="evenodd" clip-rule="evenodd" d="M184.298 361.835V180.809H202.277V361.835H184.298Z" fill="#FFB600"/>
<path fill-rule="evenodd" clip-rule="evenodd" d="M221.533 361.835V180.809H239.502V361.835H221.533Z" fill="#FFB600"/>
<path fill-rule="evenodd" clip-rule="evenodd" d="M-19.8384 2.34766L147.067 180.808H165.041L-1.86399 2.34766H-19.8384Z" fill="#FFB600"/>
<path fill-rule="evenodd" clip-rule="evenodd" d="M17.397 2.34766L184.302 180.808H202.276L35.3714 2.34766H17.397Z" fill="#FFB600"/>
<path fill-rule="evenodd" clip-rule="evenodd" d="M54.6226 2.34766L221.528 180.808H239.502L72.597 2.34766H54.6226Z" fill="#FFB600"/>
<path fill-rule="evenodd" clip-rule="evenodd" d="M91.8579 2.34766L258.119 180.808H276.093L109.832 2.34766H91.8579Z" fill="#FFB600"/>
<path fill-rule="evenodd" clip-rule="evenodd" d="M276.093 2.34766L109.188 180.808H91.2139L258.119 2.34766H276.093Z" fill="#D04A02"/>
<path fill-rule="evenodd" clip-rule="evenodd" d="M238.868 2.34766L71.9632 180.808H53.9888L220.894 2.34766H238.868Z" fill="#D04A02"/>
<path fill-rule="evenodd" clip-rule="evenodd" d="M201.633 2.34766L34.7278 180.808H16.7534L183.658 2.34766H201.633Z" fill="#D04A02"/>
<path fill-rule="evenodd" clip-rule="evenodd" d="M164.397 2.34766L-1.86418 180.808H-19.8384L146.423 2.34766H164.397Z" fill="#D04A02"/>
<path fill-rule="evenodd" clip-rule="evenodd" d="M17.397 722.073V541.047H35.3658V722.073H17.397Z" fill="#FFB600"/>
<path fill-rule="evenodd" clip-rule="evenodd" d="M54.6226 722.073V541.047H72.6014V722.073H54.6226Z" fill="#FFB600"/>
<path fill-rule="evenodd" clip-rule="evenodd" d="M91.8579 722.073V541.047H109.837V722.073H91.8579Z" fill="#FFB600"/>
<path fill-rule="evenodd" clip-rule="evenodd" d="M258.125 722.073V541.047H276.093V722.073H258.125Z" fill="#D04A02"/>
<path fill-rule="evenodd" clip-rule="evenodd" d="M147.062 722.073V541.047H165.041V722.073H147.062Z" fill="#D04A02"/>
<path fill-rule="evenodd" clip-rule="evenodd" d="M184.298 722.073V541.047H202.277V722.073H184.298Z" fill="#D04A02"/>
<path fill-rule="evenodd" clip-rule="evenodd" d="M221.533 722.073V541.047H239.502V722.073H221.533Z" fill="#D04A02"/>
<path fill-rule="evenodd" clip-rule="evenodd" d="M-19.8384 362.586L147.067 541.047H165.041L-1.86399 362.586H-19.8384Z" fill="#D04A02"/>
<path fill-rule="evenodd" clip-rule="evenodd" d="M17.397 362.586L184.302 541.047H202.276L35.3714 362.586H17.397Z" fill="#D04A02"/>
<path fill-rule="evenodd" clip-rule="evenodd" d="M54.6226 362.586L221.528 541.047H239.502L72.597 362.586H54.6226Z" fill="#D04A02"/>
<path fill-rule="evenodd" clip-rule="evenodd" d="M91.8579 362.586L258.119 541.047H276.093L109.832 362.586H91.8579Z" fill="#D04A02"/>
<path fill-rule="evenodd" clip-rule="evenodd" d="M276.093 362.586L109.188 541.047H91.2139L258.119 362.586H276.093Z" fill="#FFB600"/>
<path fill-rule="evenodd" clip-rule="evenodd" d="M238.868 362.586L71.9632 541.047H53.9888L220.894 362.586H238.868Z" fill="#FFB600"/>
<path fill-rule="evenodd" clip-rule="evenodd" d="M201.633 362.586L34.7278 541.047H16.7534L183.658 362.586H201.633Z" fill="#FFB600"/>
<path fill-rule="evenodd" clip-rule="evenodd" d="M164.397 362.586L-1.86418 541.047H-19.8384L146.423 362.586H164.397Z" fill="#FFB600"/>
<path fill-rule="evenodd" clip-rule="evenodd" d="M17.397 1081.94V900.902H35.3658V1081.94H17.397Z" fill="#D04A02"/>
<path fill-rule="evenodd" clip-rule="evenodd" d="M54.6226 1081.94V900.902H72.6014V1081.94H54.6226Z" fill="#D04A02"/>
<path fill-rule="evenodd" clip-rule="evenodd" d="M91.8579 1081.94V900.902H109.837V1081.94H91.8579Z" fill="#D04A02"/>
<path fill-rule="evenodd" clip-rule="evenodd" d="M258.125 1081.94V900.902H276.093V1081.94H258.125Z" fill="#FFB600"/>
<path fill-rule="evenodd" clip-rule="evenodd" d="M147.062 1081.94V900.902H165.041V1081.94H147.062Z" fill="#FFB600"/>
<path fill-rule="evenodd" clip-rule="evenodd" d="M184.298 1081.94V900.902H202.277V1081.94H184.298Z" fill="#FFB600"/>
<path fill-rule="evenodd" clip-rule="evenodd" d="M221.533 1081.94V900.902H239.502V1081.94H221.533Z" fill="#FFB600"/>
<path fill-rule="evenodd" clip-rule="evenodd" d="M-19.8384 722.441L147.067 900.902H165.041L-1.86399 722.441H-19.8384Z" fill="#FFB600"/>
<path fill-rule="evenodd" clip-rule="evenodd" d="M17.397 722.441L184.302 900.902H202.276L35.3714 722.441H17.397Z" fill="#FFB600"/>
<path fill-rule="evenodd" clip-rule="evenodd" d="M54.6226 722.441L221.528 900.902H239.502L72.597 722.441H54.6226Z" fill="#FFB600"/>
<path fill-rule="evenodd" clip-rule="evenodd" d="M91.8579 722.441L258.119 900.902H276.093L109.832 722.441H91.8579Z" fill="#FFB600"/>
<path fill-rule="evenodd" clip-rule="evenodd" d="M276.093 722.441L109.188 900.902H91.2139L258.119 722.441H276.093Z" fill="#D04A02"/>
<path fill-rule="evenodd" clip-rule="evenodd" d="M238.868 722.441L71.9632 900.902H53.9888L220.894 722.441H238.868Z" fill="#D04A02"/>
<path fill-rule="evenodd" clip-rule="evenodd" d="M201.633 722.441L34.7278 900.902H16.7534L183.658 722.441H201.633Z" fill="#D04A02"/>
<path fill-rule="evenodd" clip-rule="evenodd" d="M164.397 722.441L-1.86418 900.902H-19.8384L146.423 722.441H164.397Z" fill="#D04A02"/>
</svg>
